<?xml version="1.0" encoding="UTF-8"?>
<svg version="1.1" xmlns="http://www.w3.org/2000/svg" width="192" height="192">
<path d="M0 0 C5.93372416 2.95266657 8.88685579 7.96409768 11.5390625 13.8203125 C13.46080669 18.0029322 15.6005656 22.05573356 17.75 26.125 C18.18280273 26.94814697 18.61560547 27.77129395 19.06152344 28.61938477 C21.82949807 33.86022662 24.688376 39.03960516 27.625 44.1875 C30.96568038 50.04809958 34.06208372 55.99358521 37.03808594 62.046875 C39.69792847 67.44659544 42.50288944 72.75808252 45.38696289 78.04125977 C49.11151359 84.91639516 51.07113095 90.14883802 50 98 C48.02709782 104.52206983 44.72186676 109.52332493 38.78515625 112.9921875 C32.0937703 115.41347442 24.62524016 115.4843503 18.0234375 112.78125 C15.55052543 111.31692744 13.28681244 109.73746643 11 108 C9.79550175 107.24385623 8.58774666 106.4928425 7.375 105.75 C6.199375 104.88375 6.199375 104.88375 5 104 C5 103.34 5 102.68 5 102 C4.4225 101.731875 3.845 101.46375 3.25 101.1875 C1 100 1 100 -1 98.3125 C-2.8633146 96.77589929 -2.8633146 96.77589929 -4.8359375 97.25390625 C-12.01992012 99.73069448 -18.43216473 104.90458545 -24.48046875 109.38671875 C-30.10828011 112.99026308 -35.27755121 114.58643369 -41.9375 114.5625 C-42.9908252 114.55887451 -42.9908252 114.55887451 -44.06542969 114.55517578 C-49.37212694 114.36661919 -52.67308965 113.32839366 -56.5234375 109.70703125 C-61.47012137 103.98824593 -64.12314914 98.8176232 -63.875 91.125 C-62.31399736 81.76675035 -56.50206465 72.97977024 -52.1875 64.6875 C-51.59646484 63.54087891 -51.00542969 62.39425781 -50.39648438 61.21289062 C-46.9563541 54.58398092 -43.34451179 48.09893856 -39.54711914 41.66870117 C-37.58517757 38.28445258 -35.82464599 34.83373968 -34.125 31.3125 C-29.93291775 22.77681446 -25.48334779 14.38552086 -21 6 C-20.34 6 -19.68 6 -19 6 C-18.67 5.01 -18.34 4.02 -18 3 C-12.50769331 -1.17613229 -6.6093884 -1.08691272 0 0 Z M-10.33203125 37.0546875 C-13.17061808 40.18835437 -14.92683626 43.33530454 -16.6875 47.125 C-17.37283958 48.54921871 -18.06044298 49.97234969 -18.75 51.39453125 C-19.1109375 52.1417041 -19.471875 52.88887695 -19.84375 53.65869141 C-21.86793652 57.75749815 -24.03697683 61.77901736 -26.1875 65.8125 C-34.15596992 78.72072811 -34.15596992 78.72072811 -36 93 C-33.53058898 96.51703994 -32.02511833 97.77889605 -27.8125 98.6875 C-19.61340323 97.20897435 -12.99004253 91.33191682 -6.3125 86.60546875 C1.51129509 81.17374614 8.44381114 78.66469513 18 79 C16.01018858 75.32774641 14.0075993 71.66255109 12 68 C11.6302002 67.32485352 11.26040039 66.64970703 10.87939453 65.95410156 C6.34666288 57.69346362 1.75989999 49.47075697 -3.0625 41.375 C-3.44446533 40.72950195 -3.82643066 40.08400391 -4.2199707 39.41894531 C-5.11709568 37.92778091 -6.05417057 36.46075706 -7 35 C-8.39295956 34.88981982 -8.39295956 34.88981982 -10.33203125 37.0546875 Z " fill="#EA8B03" transform="translate(103,36)"/>
<path d="M0 0 C3.51682496 2.04710707 6.44770734 4.23015306 7.6875 8.203125 C7.8421875 9.09257813 7.8421875 9.09257813 8 10 C7.01 10.33 6.02 10.66 5 11 C3.93476251 12.70325754 3.93476251 12.70325754 3 15 C-1.28551544 23.66556431 -5.65375809 32.27375471 -10.1875 40.8125 C-18.11055764 53.70628391 -18.11055764 53.70628391 -20 68 C-18.58333333 70.58333333 -18.58333333 70.58333333 -16 72 C-9.92076321 73.21584736 -6.25399424 70.71677735 -1.33203125 67.5078125 C0.7317808 66.17342146 2.78174612 65.05048345 5 64 C6.65 65.32 8.3 66.64 10 68 C9.39456397 71.57964054 9.04950466 71.95977746 6 74.4375 C2.48099947 76.79798184 -1.21003899 78.80004635 -4.9375 80.80859375 C-7.17885895 82.03177378 -7.17885895 82.03177378 -9.625 84.125 C-14.92787769 88.31148238 -20.26886601 89.5864649 -26.9375 89.5625 C-27.9908252 89.55887451 -27.9908252 89.55887451 -29.06542969 89.55517578 C-34.37212694 89.36661919 -37.67308965 88.32839366 -41.5234375 84.70703125 C-46.47012137 78.98824593 -49.12314914 73.8176232 -48.875 66.125 C-47.30769373 56.7345201 -41.46568488 47.9377341 -37.125 39.625 C-36.52558594 38.47 -35.92617188 37.315 -35.30859375 36.125 C-31.62087513 29.03754078 -27.85590744 21.99736399 -24 15 C-23.34 15 -22.68 15 -22 15 C-20.655782 13.17694567 -20.655782 13.17694567 -19.3125 10.875 C-14.51988507 3.54716123 -9.4942697 -2.54072006 0 0 Z " fill="#430B70" transform="translate(88,61)"/>
<path d="M0 0 C6.17880837 6.72644842 12.00136459 15.53696107 12.421875 24.86328125 C11.90239482 27.49435217 11.08804795 28.40328424 9.0625 30.125 C8.051875 30.74375 7.04125 31.3625 6 32 C10.64466898 33.45145906 14.56171361 32.77717547 19 31 C21.33531458 29.00064306 21.33531458 29.00064306 23 27 C23.66 27 24.32 27 25 27 C25.144375 26.38125 25.28875 25.7625 25.4375 25.125 C26 23 26 23 27 21 C27.66 21 28.32 21 29 21 C28.68875002 18.62483024 28.37603597 16.24986818 28.0625 13.875 C27.93198242 12.87726563 27.93198242 12.87726563 27.79882812 11.859375 C27.27369442 7.89169812 26.68185986 3.94373002 26 0 C30.21485386 5.17277519 31.54499036 9.68049822 31.3671875 16.30859375 C30.45764735 22.97532954 27.36145604 28.40811857 22.125 32.625 C15.85101964 36.29093176 9.01114504 36.13613438 2 35 C-1.75439222 33.46276854 -4.78199166 31.44496723 -8 29 C-9.20449825 28.24385623 -10.41225334 27.4928425 -11.625 26.75 C-12.40875 26.1725 -13.1925 25.595 -14 25 C-14 24.34 -14 23.68 -14 23 C-14.53625 22.7525 -15.0725 22.505 -15.625 22.25 C-18.5966724 20.6859619 -21.31168617 19.01623538 -24 17 C-24 16.01 -24 15.02 -24 14 C-25.32 13.34 -26.64 12.68 -28 12 C-28 10.68 -28 9.36 -28 8 C-21.41840655 1.4978944 -9.09562831 -3.68072118 0 0 Z " fill="#853B01" transform="translate(122,115)"/>
<path d="M0 0 C0.66 3.3 1.32 6.6 2 10 C2.66 9.34 3.32 8.68 4 8 C6.76223278 10.76223278 6.57856291 13.20706617 7 17 C7.33 17 7.66 17 8 17 C7.88590407 18.45922693 7.75834456 19.91740598 7.625 21.375 C7.55539063 22.18710938 7.48578125 22.99921875 7.4140625 23.8359375 C7 26 7 26 5 28 C1.38058265 26.49760034 -1.7321794 25.17854707 -5 23 C-5 22.34 -5 21.68 -5 21 C-5.53625 20.7525 -6.0725 20.505 -6.625 20.25 C-9.5966724 18.6859619 -12.31168617 17.01623538 -15 15 C-15 14.01 -15 13.02 -15 12 C-16.32 11.34 -17.64 10.68 -19 10 C-19 8.68 -19 7.36 -19 6 C-13.82306366 0.98741084 -7.13593292 -2.37864431 0 0 Z " fill="#D46E06" transform="translate(113,117)"/>
<path d="M0 0 C4.21485386 5.17277519 5.54499036 9.68049822 5.3671875 16.30859375 C4.45764735 22.97532954 1.36145604 28.40811857 -3.875 32.625 C-10.10588934 36.2883872 -17.02527561 36.06536999 -24 35 C-27.24185121 33.6561557 -29.25250975 32.24284918 -32 30 C-29 28 -29 28 -27.0625 28.20703125 C-26.381875 28.40683594 -25.70125 28.60664063 -25 28.8125 C-23.9790625 29.10060547 -23.9790625 29.10060547 -22.9375 29.39453125 C-21.28562643 29.91074174 -19.64184153 30.45271949 -18 31 C-18.66 31.33 -19.32 31.66 -20 32 C-15.35533102 33.45145906 -11.43828639 32.77717547 -7 31 C-4.66468542 29.00064306 -4.66468542 29.00064306 -3 27 C-2.34 27 -1.68 27 -1 27 C-0.7834375 26.071875 -0.7834375 26.071875 -0.5625 25.125 C0 23 0 23 1 21 C1.66 21 2.32 21 3 21 C2.68875002 18.62483024 2.37603597 16.24986818 2.0625 13.875 C1.93198242 12.87726563 1.93198242 12.87726563 1.79882812 11.859375 C1.27369442 7.89169812 0.68185986 3.94373002 0 0 Z " fill="#8C4710" transform="translate(148,115)"/>
<path d="M0 0 C1.98 1.32 3.96 2.64 6 4 C5.38851244 7.59248942 4.9749346 8.02193222 2 10.625 C-2.05520259 13.36500175 -6.21505128 14.273035 -11 15 C-11.33 13.02 -11.66 11.04 -12 9 C-10.35 8.67 -8.7 8.34 -7 8 C-6.95875 7.4225 -6.9175 6.845 -6.875 6.25 C-5.55934042 2.86687535 -3.03447636 1.80777315 0 0 Z " fill="#5D1097" transform="translate(92,125)"/>
<path d="M0 0 C2.62214866 0.32127227 4.75897635 1.20617284 7.16796875 2.265625 C7.56068656 5.38866665 7.92910601 8.51410072 8.29296875 11.640625 C8.40511719 12.53007813 8.51726562 13.41953125 8.6328125 14.3359375 C8.72949219 15.18671875 8.82617188 16.0375 8.92578125 16.9140625 C9.02004395 17.69958496 9.11430664 18.48510742 9.21142578 19.29443359 C9.16796875 21.265625 9.16796875 21.265625 7.16796875 23.265625 C4.41230624 20.50996249 4.70862642 18.05022867 4.16796875 14.265625 C3.50796875 13.605625 2.84796875 12.945625 2.16796875 12.265625 C1.17796875 12.760625 1.17796875 12.760625 0.16796875 13.265625 C-0.49203125 9.635625 -1.15203125 6.005625 -1.83203125 2.265625 C-3.81203125 2.265625 -5.79203125 2.265625 -7.83203125 2.265625 C-5.26213376 -0.30427249 -3.5076744 0.02713868 0 0 Z " fill="#8C4004" transform="translate(113.83203125,114.734375)"/>
<path d="M0 0 C0.33 0 0.66 0 1 0 C1.12375 1.2375 1.2475 2.475 1.375 3.75 C1.77801111 6.95169934 2.41004682 9.17341658 4 12 C4.17015625 12.60714844 4.3403125 13.21429688 4.515625 13.83984375 C5.98438666 18.89577332 7.90023611 21.60239438 12.55078125 24.1640625 C18.97120591 26.35540361 26.47847925 25.44922683 33 24 C32.67 24.66 32.34 25.32 32 26 C25.66958647 28.11013784 16.50417772 28.469822 10.30859375 25.87109375 C4.12757228 21.37900414 0.42528759 15.51515273 -1 8 C-0.869778 5.25569188 -0.47657304 2.71646635 0 0 Z " fill="#1E053A" transform="translate(40,123)"/>
<path d="M0 0 C3.51894312 2.03797265 6.4490252 4.23437621 7.6875 8.203125 C7.790625 8.79609375 7.89375 9.3890625 8 10 C7.01 10.33 6.02 10.66 5 11 C3.28773948 13.8201938 2.1940605 16.92955871 1 20 C0.34765625 18.265625 0.34765625 18.265625 0 16 C0.99609375 13.859375 0.99609375 13.859375 2.4375 11.75 C2.91058594 11.04359375 3.38367188 10.3371875 3.87109375 9.609375 C4.24363281 9.07828125 4.61617187 8.5471875 5 8 C3.68 7.34 2.36 6.68 1 6 C1 5.34 1 4.68 1 4 C0.34 4 -0.32 4 -1 4 C-1.33 3.34 -1.66 2.68 -2 2 C-4.70331473 2.46342538 -7.07550858 3.030563 -9.625 4.0625 C-12 5 -12 5 -15 5 C-10.40214791 0.28425427 -6.63235179 -1.64371977 0 0 Z " fill="#2F1130" transform="translate(88,61)"/>
<path d="M0 0 C8.12538516 0.19098128 8.12538516 0.19098128 11.5 3.3125 C12.79229701 5.62786547 13.61413017 7.39537864 14 10 C13.34 10 12.68 10 12 10 C12 11.98 12 13.96 12 16 C11.01 15.67 10.02 15.34 9 15 C8.03929566 12.11788698 7.89418117 10.30149956 7.9375 7.3125 C7.94652344 6.50425781 7.95554687 5.69601563 7.96484375 4.86328125 C7.98224609 3.94095703 7.98224609 3.94095703 8 3 C5.36 2.34 2.72 1.68 0 1 C0 0.67 0 0.34 0 0 Z " fill="#753303" transform="translate(113,114)"/>
<path d="M0 0 C0.99 0.33 1.98 0.66 3 1 C2.01 2.485 2.01 2.485 1 4 C0.34 4 -0.32 4 -1 4 C-1.10570312 4.53496094 -1.21140625 5.06992188 -1.3203125 5.62109375 C-2.18034061 8.63119212 -3.4794571 11.26099969 -4.875 14.0625 C-5.38804688 15.10535156 -5.90109375 16.14820313 -6.4296875 17.22265625 C-7.78362875 19.61731354 -8.94127264 21.21864609 -11 23 C-11.74982997 17.64407165 -9.11449239 13.77843248 -6.625 9.25 C-6.2125 8.47011719 -5.8 7.69023438 -5.375 6.88671875 C-2.27557664 1.13778832 -2.27557664 1.13778832 0 0 Z " fill="#601596" transform="translate(57,92)"/>
<path d="M0 0 C4 1 4 1 5 2 C5.04063832 3.66617115 5.042721 5.33388095 5 7 C5.66 7 6.32 7 7 7 C6.67 8.98 6.34 10.96 6 13 C5.34 12.34 4.68 11.68 4 11 C3.01 11.495 3.01 11.495 2 12 C1.34 8.04 0.68 4.08 0 0 Z " fill="#B05100" transform="translate(112,116)"/>
<path d="M0 0 C1.98 0.66 3.96 1.32 6 2 C5.67 3.32 5.34 4.64 5 6 C-1.75 8.125 -1.75 8.125 -4 7 C-4 4 -4 4 -2 1.8125 C-1.34 1.214375 -0.68 0.61625 0 0 Z " fill="#7A17B8" transform="translate(92,127)"/>
<path d="M0 0 C0.33 0 0.66 0 1 0 C1.12375 1.2375 1.2475 2.475 1.375 3.75 C1.76730447 6.94447926 2.48248833 9.15466561 4 12 C4.38290462 13.99110401 4.72604615 15.99100513 5 18 C2 17 2 17 1.015625 15.21484375 C-0.85904015 9.63867138 -1.15536322 5.77681612 0 0 Z " fill="#2D0851" transform="translate(40,123)"/>
<path d="M0 0 C1.0209375 0.27457031 1.0209375 0.27457031 2.0625 0.5546875 C3.71928035 1.04236881 5.3615621 1.57885403 7 2.125 C6.01 2.62 6.01 2.62 5 3.125 C5.99 3.785 6.98 4.445 8 5.125 C-2.15317287 4.77489059 -2.15317287 4.77489059 -5.6875 2.0625 C-6.120625 1.423125 -6.55375 0.78375 -7 0.125 C-3.82893481 -0.93202173 -3.07370251 -0.84992531 0 0 Z " fill="#AB5309" transform="translate(123,143.875)"/>
<path d="M0 0 C0.66 0 1.32 0 2 0 C2.22162329 1.62324086 2.42689803 3.248721 2.625 4.875 C2.74101563 5.77992188 2.85703125 6.68484375 2.9765625 7.6171875 C2.98429687 8.40351563 2.99203125 9.18984375 3 10 C2.34 10.66 1.68 11.32 1 12 C-1 10 -1 10 -1.1875 6.5625 C-1 3 -1 3 0 0 Z " fill="#9C4501" transform="translate(120,126)"/>
<path d="M0 0 C1.15628906 -0.00773437 2.31257813 -0.01546875 3.50390625 -0.0234375 C4.47199219 0.10804687 5.44007812 0.23953125 6.4375 0.375 C7.0975 1.365 7.7575 2.355 8.4375 3.375 C7.11685547 3.24931641 7.11685547 3.24931641 5.76953125 3.12109375 C4.60808594 3.01925781 3.44664063 2.91742188 2.25 2.8125 C1.10144531 2.70808594 -0.04710938 2.60367188 -1.23046875 2.49609375 C-4.24881199 2.38640015 -6.65173936 2.63497611 -9.5625 3.375 C-6.88967187 -0.24625102 -4.3093711 -0.02888964 0 0 Z " fill="#BC8E1C" transform="translate(96.5625,35.625)"/>
<path d="M0 0 C0.99 0.33 1.98 0.66 3 1 C3.98248524 5.0527516 4.08159574 8.83861737 4 13 C3.34 13 2.68 13 2 13 C1.34 8.71 0.68 4.42 0 0 Z " fill="#CB6201" transform="translate(110,116)"/>
<path d="M0 0 C1.43859375 -0.02126953 1.43859375 -0.02126953 2.90625 -0.04296875 C5.5 0.1875 5.5 0.1875 8.5 2.1875 C8.17 2.8475 7.84 3.5075 7.5 4.1875 C6.51 3.5275 5.52 2.8675 4.5 2.1875 C0.35220392 1.59932265 -3.32623485 1.46518299 -6.9375 3.6875 C-7.453125 4.1825 -7.96875 4.6775 -8.5 5.1875 C-9.16 5.1875 -9.82 5.1875 -10.5 5.1875 C-9.6875 3.25 -9.6875 3.25 -8.5 1.1875 C-5.43301363 0.16517121 -3.21335122 0.0215951 0 0 Z " fill="#E79E10" transform="translate(83.5,59.8125)"/>
<path d="M0 0 C2.33364352 2.92903058 4.04960836 5.88568203 5.6875 9.25 C6.12449219 10.14203125 6.56148437 11.0340625 7.01171875 11.953125 C7.33785156 12.62859375 7.66398438 13.3040625 8 14 C7.01 14 6.02 14 5 14 C4.67 12.02 4.34 10.04 4 8 C3.01 7.67 2.02 7.34 1 7 C0.67 4.69 0.34 2.38 0 0 Z " fill="#AC7519" transform="translate(123,68)"/>
<path d="M0 0 C0 2.97 0 5.94 0 9 C-0.66 8.01 -1.32 7.02 -2 6 C-2.66 6 -3.32 6 -4 6 C-4.33 4.35 -4.66 2.7 -5 1 C-1.125 0 -1.125 0 0 0 Z " fill="#E57701" transform="translate(111,117)"/>
<path d="M0 0 C0 0.33 0 0.66 0 1 C-1.5778125 1.433125 -1.5778125 1.433125 -3.1875 1.875 C-6.86177831 2.88930551 -6.86177831 2.88930551 -9.75 4.125 C-12 5 -12 5 -15 5 C-10.11364631 -0.01164481 -6.90153688 -0.69015369 0 0 Z " fill="#49232E" transform="translate(88,61)"/>
<path d="M0 0 C0.65234375 1.734375 0.65234375 1.734375 1 4 C0.00390625 6.140625 0.00390625 6.140625 -1.4375 8.25 C-1.91058594 8.95640625 -2.38367188 9.6628125 -2.87109375 10.390625 C-3.24363281 10.92171875 -3.61617188 11.4528125 -4 12 C-4.33 11.34 -4.66 10.68 -5 10 C-4.00390625 7.6171875 -4.00390625 7.6171875 -2.5625 4.875 C-1.85287109 3.50988281 -1.85287109 3.50988281 -1.12890625 2.1171875 C-0.75636719 1.41851562 -0.38382812 0.71984375 0 0 Z " fill="#964F3A" transform="translate(70,65)"/>
<path d="M0 0 C0.99 0.99 1.98 1.98 3 3 C0.66785852 4.20628008 -1.49642139 5.1654738 -4 6 C-3.6875 4.125 -3.6875 4.125 -3 2 C-2.01 1.34 -1.02 0.68 0 0 Z " fill="#6D189A" transform="translate(92,125)"/>
<path d="M0 0 C0.66 0.33 1.32 0.66 2 1 C1.814375 1.61875 1.62875 2.2375 1.4375 2.875 C0.76313824 5.04160178 0.76313824 5.04160178 2 7 C0.68 6.34 -0.64 5.68 -2 5 C-2 3.68 -2 2.36 -2 1 C-1.34 0.67 -0.68 0.34 0 0 Z " fill="#BE7220" transform="translate(96,122)"/>
<path d="M0 0 C0.66 0.33 1.32 0.66 2 1 C-1.75 7.75 -1.75 7.75 -4 10 C-3.5205537 5.78087253 -2.83374881 3.20336822 0 0 Z " fill="#1D0736" transform="translate(92,71)"/>
<path d="M0 0 C1.2872642 2.5745284 1.34791629 4.14708645 1 7 C-1 8.8125 -1 8.8125 -3 10 C-2.69201674 8.51988629 -2.378482 7.04092675 -2.0625 5.5625 C-1.88847656 4.73878906 -1.71445313 3.91507813 -1.53515625 3.06640625 C-1 1 -1 1 0 0 Z " fill="#B8771D" transform="translate(73,59)"/>
<path d="M0 0 C2.78388975 1.70625501 3.85384206 2.47626739 4.75 5.6875 C4.8325 6.450625 4.915 7.21375 5 8 C4.34 8 3.68 8 3 8 C0 2.25 0 2.25 0 0 Z " fill="#B08816" transform="translate(107,40)"/>
</svg>
