<?xml version="1.0" encoding="UTF-8"?>
<svg version="1.1" xmlns="http://www.w3.org/2000/svg" width="1254" height="1254">
<path d="M0 0 C413.82 0 827.64 0 1254 0 C1254 413.82 1254 827.64 1254 1254 C840.18 1254 426.36 1254 0 1254 C0 840.18 0 426.36 0 0 Z " fill="#090114" transform="translate(0,0)"/>
<path d="M0 0 C2.18679575 1.6604166 4.23111662 3.39940433 6.26953125 5.23828125 C7.07519531 5.92664063 7.88085938 6.615 8.7109375 7.32421875 C27.70564421 23.85396352 39.6784093 45.58463549 52.36962891 67.03564453 C54.89484762 71.29236762 57.44613387 75.53316984 59.99804688 79.77392578 C66.90659419 91.25556144 73.74154834 102.7793373 80.54785156 114.32177734 C83.71909106 119.69381748 86.90096435 125.05955662 90.08203125 130.42578125 C90.75137695 131.55508057 91.42072266 132.68437988 92.11035156 133.84790039 C94.16326204 137.31144926 96.21637795 140.77487632 98.26953125 144.23828125 C114.49965174 171.61640211 114.49965174 171.61640211 122.34106445 184.90063477 C125.25494759 189.83542965 128.17606416 194.7658071 131.10546875 199.69140625 C139.0415359 213.04159181 146.87889748 226.44244643 154.62109375 239.90625 C158.14524007 246.03181958 161.70308045 252.13727141 165.26953125 258.23828125 C175.7213268 276.13458563 186.09692839 294.06810569 196.19555664 312.16650391 C199.99910089 318.98071347 203.83410448 325.77575766 207.70703125 332.55078125 C208.19872803 333.4113916 208.6904248 334.27200195 209.19702148 335.15869141 C212.46127373 340.85899443 215.7769199 346.52557807 219.16015625 352.15625 C220.26953125 354.23828125 220.26953125 354.23828125 220.26953125 356.23828125 C214.44272334 354.80201397 208.96133422 353.14187529 203.45703125 350.73828125 C172.16182901 338.58016864 135.23728244 344.36184245 105.26953125 357.23828125 C92.78731426 362.94973415 81.28519151 369.85346466 70.17138672 377.87646484 C66.99044564 380.15416566 63.75131042 382.34614423 60.51953125 384.55078125 C51.87427336 390.48327263 43.28153134 396.49203306 34.71191406 402.53320312 C32.96602812 403.75204233 31.20881178 404.95471604 29.44433594 406.14648438 C28.52813477 406.76974609 27.61193359 407.39300781 26.66796875 408.03515625 C25.82669434 408.60073242 24.98541992 409.16630859 24.11865234 409.74902344 C23.50844238 410.24047852 22.89823242 410.73193359 22.26953125 411.23828125 C22.26953125 411.89828125 22.26953125 412.55828125 22.26953125 413.23828125 C23.92451936 414.61743801 25.64783499 415.91478513 27.39453125 417.17578125 C28.49724712 417.98149676 29.5987601 418.78886051 30.69921875 419.59765625 C31.28155273 420.02498047 31.86388672 420.45230469 32.46386719 420.89257812 C35.52937372 423.17720116 38.52247541 425.55250288 41.51953125 427.92578125 C46.38456862 431.76940017 51.28504458 435.54976112 56.26953125 439.23828125 C53.89686632 441.81602122 51.34139404 443.59691 48.38671875 445.46875 C47.39671875 446.09885986 46.40671875 446.72896973 45.38671875 447.37817383 C44.31679688 448.05388428 43.246875 448.72959473 42.14453125 449.42578125 C40.45160254 450.50194748 38.75867742 451.5781194 37.065979 452.65464783 C35.3061232 453.77322036 33.54523468 454.89015251 31.78417969 456.00683594 C26.26924923 459.50575166 20.76982324 463.0289171 15.26953125 466.55078125 C14.21942871 467.22262451 13.16932617 467.89446777 12.08740234 468.58666992 C5.64492625 472.71028094 -0.78423925 476.85363012 -7.20117188 481.0168457 C-14.61683815 485.82293259 -22.06627503 490.5761717 -29.51171875 495.3359375 C-35.42876109 499.12025948 -41.33828493 502.91537627 -47.23046875 506.73828125 C-55.29506914 511.97067079 -63.39294222 517.15068302 -71.49633789 522.32275391 C-76.1725441 525.3096873 -80.84431611 528.30069005 -85.4765625 531.35546875 C-95.29976009 537.82814436 -105.35203357 543.69869194 -115.73046875 549.23828125 C-116.68695313 549.75261719 -117.6434375 550.26695312 -118.62890625 550.796875 C-128.20313284 555.76989561 -137.82055984 559.96738058 -148.73046875 560.23828125 C-148.73046875 560.89828125 -148.73046875 561.55828125 -148.73046875 562.23828125 C-153.82475753 563.55902279 -158.35635917 564.34039599 -163.65527344 564.17700195 C-166.00293704 564.24632708 -168.08336044 564.69100835 -170.37109375 565.21875 C-175.47741545 566.27581046 -180.33810366 566.5838981 -185.54296875 566.55078125 C-186.43733643 566.54804199 -187.3317041 566.54530273 -188.25317383 566.54248047 C-198.20535071 566.39136093 -207.94656016 564.98417132 -217.73046875 563.23828125 C-218.54475342 563.10317139 -219.35903809 562.96806152 -220.19799805 562.82885742 C-226.51779572 561.69831103 -232.23738659 559.7328108 -238.16796875 557.30078125 C-239.05162109 556.95337891 -239.93527344 556.60597656 -240.84570312 556.24804688 C-244.86310246 554.62581186 -247.70882866 553.37484901 -250.73046875 550.23828125 C-251.55546875 549.90828125 -252.38046875 549.57828125 -253.23046875 549.23828125 C-255.82499736 548.2004698 -256.79785746 547.17089254 -258.73046875 545.23828125 C-259.59671875 544.90828125 -260.46296875 544.57828125 -261.35546875 544.23828125 C-262.13921875 543.90828125 -262.92296875 543.57828125 -263.73046875 543.23828125 C-264.22546875 541.75328125 -264.22546875 541.75328125 -264.73046875 540.23828125 C-265.49359375 540.15578125 -266.25671875 540.07328125 -267.04296875 539.98828125 C-270.3603716 539.06249441 -270.73821933 537.94774047 -272.73046875 535.23828125 C-273.67921875 534.78453125 -274.62796875 534.33078125 -275.60546875 533.86328125 C-279.37872028 531.90119045 -281.1289144 529.57360734 -283.73046875 526.23828125 C-284.49359375 525.49578125 -285.25671875 524.75328125 -286.04296875 523.98828125 C-303.73046875 505.88944404 -303.73046875 505.88944404 -303.73046875 498.23828125 C-304.39046875 498.23828125 -305.05046875 498.23828125 -305.73046875 498.23828125 C-306.13265625 497.15546875 -306.13265625 497.15546875 -306.54296875 496.05078125 C-307.624066 493.26604894 -307.624066 493.26604894 -309.140625 491.046875 C-311.05337061 487.66784775 -312.20468665 484.17504612 -313.35546875 480.48828125 C-314.45325593 476.01783682 -314.45325593 476.01783682 -316.73046875 472.23828125 C-316.77127658 470.23869761 -316.77301231 468.23782871 -316.73046875 466.23828125 C-317.39046875 466.23828125 -318.05046875 466.23828125 -318.73046875 466.23828125 C-319.43624763 462.91211056 -320.08706318 459.57703446 -320.73046875 456.23828125 C-320.92125 455.33078125 -321.11203125 454.42328125 -321.30859375 453.48828125 C-329.09191047 411.68075143 -312.66257812 376.17587945 -293.73046875 340.23828125 C-292.88616318 338.626593 -292.04234472 337.0146494 -291.19921875 335.40234375 C-279.95401054 313.92900985 -268.51916268 292.55373664 -257.05078125 271.19897461 C-252.65812953 263.0055763 -248.34788885 254.77207354 -244.06811523 246.51928711 C-240.78748563 240.21224238 -237.41055491 233.96510099 -233.98046875 227.73828125 C-228.70407338 218.15328259 -223.68429351 208.44709554 -218.69155884 198.71270752 C-214.45324198 190.45380111 -210.15356434 182.24160839 -205.66796875 174.11328125 C-201.00603772 165.66383071 -196.52503049 157.12860981 -192.10546875 148.55078125 C-191.7836261 147.92628082 -191.46178345 147.3017804 -191.13018799 146.65835571 C-189.86493292 144.20282868 -188.60000518 141.74713346 -187.33557129 139.29118347 C-183.19071479 131.24323515 -178.99283511 123.22459288 -174.73046875 115.23828125 C-174.22322266 114.28679199 -173.71597656 113.33530273 -173.19335938 112.35498047 C-171.56683596 109.31229345 -169.9313586 106.27459277 -168.29296875 103.23828125 C-167.78419189 102.28703369 -167.27541504 101.33578613 -166.7512207 100.35571289 C-166.27128662 99.47133545 -165.79135254 98.58695801 -165.296875 97.67578125 C-164.6618103 96.49822266 -164.6618103 96.49822266 -164.01391602 95.296875 C-162.75663525 93.28025119 -161.41195322 91.8989356 -159.73046875 90.23828125 C-158.8455365 88.89605447 -158.00468847 87.52417741 -157.19921875 86.1328125 C-156.72395752 85.32199219 -156.24869629 84.51117188 -155.7590332 83.67578125 C-155.25460693 82.80953125 -154.75018066 81.94328125 -154.23046875 81.05078125 C-142.37157824 60.99719302 -128.69334791 41.85009097 -112.9296875 24.66796875 C-111.54593686 23.13920694 -110.18961332 21.58470016 -108.875 19.99609375 C-81.54939998 -12.74801544 -36.63125837 -23.63476041 0 0 Z " fill="#450B73" transform="translate(587.73046875,410.76171875)"/>
<path d="M0 0 C0.8765625 0.19335938 1.753125 0.38671875 2.65625 0.5859375 C31.47328179 7.98230899 55.20654561 31.67995802 70.1015625 56.4296875 C75.89637643 66.37945402 81.01918416 76.71525996 86.2800293 86.95336914 C90.08864148 94.35757938 93.97709608 101.70947097 98 109 C102.68151712 117.49166567 107.18415029 126.0684032 111.625 134.6875 C111.94774902 135.31381317 112.27049805 135.94012634 112.60302734 136.5854187 C113.87187768 139.04820203 115.14042844 141.51113932 116.4085083 143.97431946 C122.59587733 155.98798508 128.94774442 167.91141691 135.34121704 179.81640625 C135.66174042 180.41324219 135.98226379 181.01007813 136.3125 181.625 C136.63229828 182.22038574 136.95209656 182.81577148 137.28158569 183.42919922 C143.47874539 194.97230438 149.53194751 206.58743104 155.55810547 218.22070312 C162.02351186 230.68297647 168.63747752 243.06420839 175.28305054 255.43112183 C180.37470534 264.91058456 185.36192579 274.44099911 190.30273438 284 C193.71963115 290.59122315 197.22892359 297.12310166 200.8125 303.625 C205.70352222 312.50272547 210.37459719 321.48225467 215 330.5 C220.10537156 340.45331679 225.30337485 350.33878501 230.703125 360.13671875 C234.2279399 366.54460236 237.63571392 373.00652516 241 379.5 C244.86942155 386.96774513 248.820512 394.38112895 252.875 401.75 C258.00602358 411.0803613 262.91675904 420.5148852 267.79296875 429.98046875 C271.39577502 436.95645187 275.08225187 443.87564402 278.875 450.75 C284.11298659 460.24915947 289.08928437 469.87171748 294.03744507 479.52365112 C298.30888872 487.85150959 302.65524166 496.12249626 307.1875 504.3125 C313.35255688 515.46399994 319.02340912 526.85313554 324.65429688 538.28173828 C325.82649873 540.64953499 327.01953289 543.00521095 328.21875 545.359375 C343.60778511 576.16129186 343.13049518 613.46814879 334 646 C332.59221728 650.1426151 330.86151163 654.04366729 329 658 C328.4156726 659.33884396 327.83380757 660.67876427 327.25390625 662.01953125 C316.14571974 687.23502893 297.23987829 706.48968262 274 721 C273.20980469 721.50402344 272.41960937 722.00804687 271.60546875 722.52734375 C244.87576642 738.52427841 207.1256307 741.58210987 177.25537109 734.40283203 C145.48150141 725.94683704 119.51291213 709.85128077 94.01757812 689.59716797 C91.1783301 687.34954447 88.31029515 685.14212016 85.4375 682.9375 C84.41269531 682.14988281 83.38789062 681.36226562 82.33203125 680.55078125 C79.87542354 678.66745665 77.41314564 676.7917059 74.94921875 674.91796875 C67.3542001 669.13713784 59.82006106 663.29728532 52.38549805 657.3112793 C47.91725191 653.7182505 43.39725384 650.20081452 38.84277344 646.71801758 C34.8695675 643.67736074 30.92906279 640.59744636 27 637.5 C22.5219413 633.97080295 18.0252809 630.46844169 13.5 627 C6.62044959 621.72515565 -0.19119445 616.36566581 -7 611 C-14.88060919 604.79296716 -22.77527349 598.60419633 -30.6875 592.4375 C-31.85587402 591.5252063 -31.85587402 591.5252063 -33.04785156 590.59448242 C-33.77842773 590.02576416 -34.50900391 589.4570459 -35.26171875 588.87109375 C-36.23564575 588.11203735 -36.23564575 588.11203735 -37.22924805 587.33764648 C-38.77784744 586.16781661 -40.38516592 585.07655605 -42 584 C-40.85072339 580.55217018 -40.14107401 580.12444106 -37.23046875 578.13671875 C-36.43479492 577.58709473 -35.63912109 577.0374707 -34.81933594 576.47119141 C-33.51657715 575.58826416 -33.51657715 575.58826416 -32.1875 574.6875 C-30.34224288 573.41826679 -28.49719636 572.14872735 -26.65234375 570.87890625 C-25.23477783 569.90848389 -25.23477783 569.90848389 -23.78857422 568.91845703 C-20.39293771 566.582359 -17.02669259 564.20646605 -13.66162109 561.82666016 C-9.45774432 558.8603693 -5.23091179 555.92755399 -1 553 C0.4238501 552.01265869 0.4238501 552.01265869 1.87646484 551.00537109 C22.95285584 536.4581358 43.3018619 525.11217475 68 518 C68.6815918 517.79375 69.36318359 517.5875 70.06542969 517.375 C98.45040959 509.00566175 130.57027194 515.90118478 157 527 C148.11380552 510.93354096 139.16638936 494.90879685 130 479 C129.42813965 478.00709961 128.8562793 477.01419922 128.26708984 475.99121094 C124.48997024 469.4352757 120.70755269 462.88240927 116.92333984 456.33056641 C114.40354845 451.96715003 111.88560896 447.6026668 109.36791992 443.23803711 C108.12219562 441.07857542 106.87626447 438.91923303 105.63012695 436.76000977 C102.47640735 431.29517996 99.32547561 425.82877485 96.1796875 420.359375 C88.68684045 407.33871912 81.11561975 394.36878404 73.45068359 381.44873047 C71.2916517 377.80431952 69.14536297 374.15246848 67 370.5 C55.71701322 351.30361654 44.35474248 332.15398669 33 313 C30.27065156 308.39594105 27.54148294 303.7917756 24.8125 299.1875 C24.14790771 298.06633789 23.48331543 296.94517578 22.79858398 295.79003906 C19.14996144 289.63335364 15.5072434 283.47324142 11.87084961 277.30932617 C5.8649839 267.13128805 -0.17568075 256.9752189 -6.27929688 246.85546875 C-7.86759645 244.21972077 -9.45190945 241.58160418 -11.03582764 238.94322205 C-40.29082624 188.66586668 -40.29082624 188.66586668 -89.1875 160 C-110.69351447 155.90361629 -131.49350026 159.87097185 -149.72363281 172.16210938 C-153.62212757 174.9439054 -157.32365508 177.93235345 -161 181 C-161.84691406 181.70511719 -162.69382812 182.41023437 -163.56640625 183.13671875 C-168.52134846 187.40417321 -172.80671116 191.99538236 -177 197 C-177.78761719 197.89976562 -178.57523437 198.79953125 -179.38671875 199.7265625 C-194.56214992 217.14066693 -207.53071234 236.30248829 -219.09692383 256.26855469 C-220.80845671 259.19006937 -222.43004566 261.76735217 -225 264 C-223.74557318 259.98458271 -222.26906124 256.33510297 -220.3125 252.61328125 C-219.78414551 251.60289795 -219.25579102 250.59251465 -218.71142578 249.55151367 C-217.86427002 247.9482019 -217.86427002 247.9482019 -217 246.3125 C-216.41331543 245.19399658 -215.82663086 244.07549316 -215.22216797 242.9230957 C-214.03385928 240.65896464 -212.84361358 238.39584908 -211.65136719 236.13378906 C-210.24453911 233.46406032 -208.84301835 230.7916982 -207.4453125 228.1171875 C-203.25444277 220.10927327 -199.00195872 212.13587754 -194.72143555 204.17553711 C-194.08510539 202.99203458 -193.44879372 201.80852212 -192.8125 200.625 C-192.49544098 200.03542511 -192.17838196 199.44585022 -191.85171509 198.83840942 C-186.91274401 189.64735024 -182.08365728 180.40414614 -177.3125 171.125 C-172.40377353 161.57872292 -167.38451573 152.10331116 -162.21508789 142.6953125 C-156.02739634 131.43159142 -149.99367975 120.09074447 -144.3125 108.5625 C-139.94726217 99.71566407 -135.25131828 91.04259697 -130.56640625 82.36230469 C-126.44288169 74.72416041 -126.44288169 74.72416041 -122.453125 67.015625 C-107.58791665 37.71096581 -84.38160539 11.93094467 -52.4140625 1.42578125 C-34.62356279 -4.05577944 -18.02371153 -4.26667508 0 0 Z " fill="#EE8D01" transform="translate(651,240)"/>
<path d="M0 0 C2.89045568 3.51600206 5.11506382 7.3091497 7.40625 11.234375 C8.47625563 13.04315032 9.5465832 14.85173522 10.6171875 16.66015625 C11.18147461 17.61744629 11.74576172 18.57473633 12.32714844 19.56103516 C14.74200693 23.64253313 17.18771444 27.70517355 19.63330078 31.76831055 C26.60604238 43.35396828 33.50368679 54.98265246 40.37207031 66.63037109 C43.54330981 72.00241123 46.7251831 77.36815037 49.90625 82.734375 C50.5755957 83.86367432 51.24494141 84.99297363 51.93457031 86.15649414 C53.98748079 89.62004301 56.0405967 93.08347007 58.09375 96.546875 C74.32387049 123.92499586 74.32387049 123.92499586 82.1652832 137.20922852 C85.07916634 142.1440234 88.00028291 147.07440085 90.9296875 152 C98.86575465 165.35018556 106.70311623 178.75104018 114.4453125 192.21484375 C117.96945882 198.34041333 121.5272992 204.44586516 125.09375 210.546875 C135.54554555 228.44317938 145.92114714 246.37669944 156.01977539 264.47509766 C159.82331964 271.28930722 163.65832323 278.08435141 167.53125 284.859375 C168.26879517 286.15029053 168.26879517 286.15029053 169.02124023 287.46728516 C172.28549248 293.16758818 175.60113865 298.83417182 178.984375 304.46484375 C180.09375 306.546875 180.09375 306.546875 180.09375 308.546875 C174.26694209 307.11060772 168.78555297 305.45046904 163.28125 303.046875 C131.98604776 290.88876239 95.06150119 296.6704362 65.09375 309.546875 C52.61153301 315.2583279 41.10941026 322.16205841 29.99560547 330.18505859 C26.81466259 332.4627607 23.57548838 334.65467552 20.34375 336.859375 C8.57657052 344.9367469 -3.10433459 353.13963239 -14.74853516 361.39306641 C-21.05002488 365.85786937 -27.38655926 370.24405397 -33.83203125 374.5 C-37.46440927 376.91850837 -41.06240879 379.38410662 -44.65625 381.859375 C-45.33324951 382.32553223 -46.01024902 382.79168945 -46.70776367 383.27197266 C-49.43695102 385.15250241 -52.16503218 387.03462166 -54.89160156 388.91894531 C-58.8589542 391.6607082 -62.83378389 394.39107749 -66.81591797 397.11132812 C-68.99061075 398.6048102 -71.1531854 400.11496101 -73.31640625 401.625 C-97.07127995 418.0499013 -121.77389273 427.38585883 -151.15283203 423.22900391 C-154.96730655 422.46883432 -158.39660299 421.19907725 -161.90625 419.546875 C-162.84984375 419.11117188 -163.7934375 418.67546875 -164.765625 418.2265625 C-180.87902084 410.08084029 -191.25392802 397.71019394 -196.875 380.59765625 C-203.54579028 355.98367543 -194.71119949 335.97141044 -183.796875 314.23046875 C-183.10413207 312.84685477 -182.41156973 311.46315035 -181.71917725 310.07936096 C-179.9025312 306.44986383 -178.08349252 302.82157118 -176.26391602 299.19354248 C-174.43754437 295.5509636 -172.61337829 291.9072807 -170.7890625 288.26367188 C-167.78054168 282.25546048 -164.77052953 276.24799895 -161.7588501 270.2413702 C-160.081649 266.89541229 -158.40699792 263.54819983 -156.73529053 260.19949341 C-156.37494595 259.47787805 -156.01460136 258.75626268 -155.64333725 258.01278019 C-154.95248899 256.62900486 -154.26200883 255.24504568 -153.57196426 253.86086941 C-151.33592589 249.38246172 -149.03764007 244.94944487 -146.65625 240.546875 C-144.33297041 236.23237317 -142.05929632 231.9040895 -139.90234375 227.50390625 C-138.15433173 224.06957676 -136.25422844 220.71713889 -134.37109375 217.35546875 C-132.86442951 214.56383259 -132.86442951 214.56383259 -131.68017578 211.6105957 C-129.37874903 206.19922802 -126.69130679 200.97437499 -124.05859375 195.71875 C-123.48726212 194.57513 -122.91593048 193.43151001 -122.32728577 192.25323486 C-121.11735723 189.83190802 -119.90599605 187.41130491 -118.69360352 184.99121094 C-117.17039253 181.95040746 -115.65073269 178.90784622 -114.13210106 175.86475372 C-108.28192899 164.1455004 -102.39001209 152.45620191 -96.25120544 140.88519287 C-92.68654982 134.16179758 -89.27925225 127.3686773 -85.90625 120.546875 C-81.53038033 111.73391791 -77.07427617 102.9723203 -72.453125 94.28515625 C-69.5156234 88.74835226 -66.6921478 83.16133945 -63.90625 77.546875 C-60.29839228 70.28134277 -56.60643969 63.06856535 -52.79248047 55.90893555 C-50.48193631 51.56738461 -48.22547842 47.20634491 -46.03125 42.8046875 C-29.10075057 9.07964316 -29.10075057 9.07964316 -13.40625 0.671875 C-3.35627701 -2.55847346 -3.35627701 -2.55847346 0 0 Z " fill="#070112" transform="translate(627.90625,458.453125)"/>
<path d="M0 0 C2.1299846 0.84835833 2.1299846 0.84835833 5.01098633 0.68676758 C5.36652588 1.34161133 5.72206543 1.99645508 6.08837891 2.67114258 C14.92159725 18.9071798 23.98715847 35.0129543 33.28442383 50.98754883 C36.82487773 57.07521298 40.30935449 63.19483385 43.79248047 69.31542969 C45.9069167 73.02641698 48.0239546 76.73309873 50.21801758 80.39770508 C53.40367203 85.722778 56.12445678 90.77322302 58.01098633 96.68676758 C58.25333008 97.36868164 58.49567383 98.0505957 58.74536133 98.75317383 C59.55099439 101.0508722 60.28919228 103.36140015 61.01098633 105.68676758 C61.28168945 106.52336914 61.55239258 107.3599707 61.83129883 108.22192383 C63.73500728 114.79249039 64.40746215 121.1985788 64.76098633 127.99926758 C64.80562012 128.847229 64.85025391 129.69519043 64.89624023 130.56884766 C65.37830075 142.63579595 65.37830075 142.63579595 62.01098633 147.68676758 C61.63973633 149.38833008 61.63973633 149.38833008 61.26098633 151.12426758 C59.64633944 158.12975164 55.97612615 164.73905784 52.01098633 170.68676758 C51.35098633 170.68676758 50.69098633 170.68676758 50.01098633 170.68676758 C49.94911133 171.24364258 49.88723633 171.80051758 49.82348633 172.37426758 C47.53556185 178.88605263 39.64908176 183.31061236 34.01098633 186.68676758 C31.67711025 187.67119872 29.39221688 188.44459101 26.95629883 189.13208008 C24.87949845 189.66302477 24.87949845 189.66302477 22.57348633 190.87426758 C19.14739625 191.96058882 16.01132586 191.70903083 12.44067383 191.62426758 C9.36658438 191.70334383 6.87714648 192.62028938 4.01098633 193.68676758 C1.13598633 193.81176758 1.13598633 193.81176758 -0.98901367 193.68676758 C-0.32901367 192.69676758 0.33098633 191.70676758 1.01098633 190.68676758 C-0.12338867 190.61200195 -1.25776367 190.53723633 -2.42651367 190.46020508 C-7.53281514 189.81182146 -11.51679306 187.76481396 -15.98901367 185.31176758 C-16.81788086 184.86478516 -17.64674805 184.41780273 -18.50073242 183.95727539 C-31.02854374 177.06506066 -42.36222968 168.47771977 -53.8215332 159.97143555 C-59.96898768 155.41139322 -66.19169878 150.96948095 -72.47119141 146.59326172 C-79.9922903 141.33638014 -79.9922903 141.33638014 -82.98901367 138.68676758 C-82.98901367 138.02676758 -82.98901367 137.36676758 -82.98901367 136.68676758 C-83.56611084 136.57445801 -84.14320801 136.46214844 -84.73779297 136.34643555 C-87.22687354 135.61706827 -88.8776323 134.60388766 -91.00854492 133.13208008 C-92.16 132.34160278 -92.16 132.34160278 -93.3347168 131.53515625 C-94.14875977 130.96643799 -94.96280273 130.39771973 -95.80151367 129.81176758 C-96.64520508 129.2282251 -97.48889648 128.64468262 -98.3581543 128.04345703 C-107.09768366 121.97113309 -115.66396274 115.67079101 -124.18432617 109.29614258 C-125.15112305 108.57942383 -126.11791992 107.86270508 -127.11401367 107.12426758 C-127.9415918 106.50422852 -128.76916992 105.88418945 -129.62182617 105.24536133 C-131.96080531 103.59077771 -131.96080531 103.59077771 -134.73120117 102.59692383 C-136.98901367 101.68676758 -136.98901367 101.68676758 -137.98901367 99.68676758 C-139.67159614 98.72230964 -141.35633752 97.76131904 -143.05444336 96.82446289 C-146.13156467 95.01484839 -148.84420515 92.80384122 -151.61401367 90.56176758 C-152.8350185 89.58997432 -154.05638145 88.61863088 -155.27807617 87.64770508 C-155.89199219 87.15753906 -156.5059082 86.66737305 -157.13842773 86.16235352 C-160.07565269 83.82032348 -163.02622109 81.49634605 -165.98901367 79.18676758 C-166.99963867 78.39270508 -168.01026367 77.59864258 -169.05151367 76.78051758 C-171.8728621 74.64539033 -171.8728621 74.64539033 -174.80932617 73.32348633 C-179.22826424 71.04887325 -182.95861202 68.05408599 -186.86401367 64.99926758 C-187.64776367 64.39276367 -188.43151367 63.78625977 -189.23901367 63.16137695 C-191.15926103 61.67435613 -193.07575194 60.18275846 -194.98901367 58.68676758 C-193.83973706 55.23893776 -193.13008768 54.81120864 -190.21948242 52.82348633 C-189.42380859 52.2738623 -188.62813477 51.72423828 -187.80834961 51.15795898 C-186.93984375 50.56934082 -186.07133789 49.98072266 -185.17651367 49.37426758 C-183.33125655 48.10503437 -181.48621003 46.83549493 -179.64135742 45.56567383 C-178.69631348 44.91872559 -177.75126953 44.27177734 -176.77758789 43.60522461 C-173.38195138 41.26912658 -170.01570626 38.89323363 -166.65063477 36.51342773 C-162.44675799 33.54713688 -158.21992546 30.61432156 -153.98901367 27.68676758 C-153.03978027 27.02854004 -152.09054687 26.3703125 -151.11254883 25.69213867 C-130.03615783 11.14490338 -109.68715177 -0.20105767 -84.98901367 -7.31323242 C-83.96662598 -7.62260742 -83.96662598 -7.62260742 -82.92358398 -7.93823242 C-56.38771357 -15.76235898 -24.97270704 -10.30482063 0 0 Z " fill="#B35600" transform="translate(803.989013671875,765.313232421875)"/>
<path d="M0 0 C1 2 1 2 -0.15234375 5.5703125 C-0.73689344 7.09261616 -1.33277263 8.6105986 -1.9375 10.125 C-2.25452881 10.9288916 -2.57155762 11.7327832 -2.89819336 12.56103516 C-5.88958069 19.99532996 -9.38355823 27.121048 -13.07861328 34.22607422 C-16.47032917 40.75607095 -19.71157676 47.35360133 -22.80932617 54.02734375 C-26.92804965 62.89628152 -31.39498529 71.53188569 -36.01318359 80.14941406 C-37.36831835 82.69071081 -38.69398476 85.24563431 -40 87.8125 C-40.556875 88.90498047 -40.556875 88.90498047 -41.125 90.01953125 C-41.9988517 91.99740094 -42.54476887 93.88981405 -43 96 C-43.66 96 -44.32 96 -45 96 C-45.268125 96.845625 -45.53625 97.69125 -45.8125 98.5625 C-48.27174493 105.68136691 -51.58853675 112.2984299 -55 119 C-55.66 119 -56.32 119 -57 119 C-57.103125 119.86625 -57.20625 120.7325 -57.3125 121.625 C-58.40586724 126.99243916 -61.08821196 131.14509003 -63.9375 135.75 C-66.91179013 140.63050599 -69.05938919 145.63478187 -71 151 C-71.66 151 -72.32 151 -73 151 C-73.26409668 151.85867676 -73.52819336 152.71735352 -73.80029297 153.60205078 C-75.01781562 157.05045946 -76.49817905 160.12966069 -78.1953125 163.3671875 C-78.65814384 164.2552433 -78.65814384 164.2552433 -79.13032532 165.16123962 C-79.78647823 166.41924251 -80.44456803 167.6762368 -81.10446167 168.93228149 C-82.82187879 172.20159331 -84.52497322 175.47836462 -86.23046875 178.75390625 C-86.56347488 179.39243027 -86.89648102 180.03095428 -87.23957825 180.68882751 C-90.91838557 187.74776284 -94.46869545 194.86660751 -98 202 C-99.3309202 204.66787479 -100.66538466 207.33397214 -102 210 C-103.91280353 213.82102549 -105.8232985 217.64298265 -107.71875 221.47265625 C-113.13901665 232.40987211 -118.75316533 243.24654153 -124.36523438 254.08618164 C-125.68264367 256.63077612 -126.99797234 259.17642275 -128.31079102 261.72338867 C-129.29192315 263.62652127 -130.27549829 265.52840604 -131.26538086 267.42700195 C-133.56951822 271.9088201 -135.41244177 276.43674649 -137.0625 281.1875 C-137.31926514 281.92291016 -137.57603027 282.65832031 -137.84057617 283.41601562 C-149.56744168 317.7661609 -145.45871132 354.21934499 -129.95996094 386.55908203 C-126.76491616 393.01478139 -123.32287261 399.22517018 -119 405 C-118.44183594 405.74894531 -117.88367188 406.49789063 -117.30859375 407.26953125 C-104.6033103 423.81777052 -104.6033103 423.81777052 -88 436 C-88 436.66 -88 437.32 -88 438 C-87.443125 438.0825 -86.88625 438.165 -86.3125 438.25 C-83.23811154 439.24709896 -81.33757048 440.79229454 -79 443 C-79 443.99 -79 444.98 -79 446 C-83.98840294 444.84883009 -86.53108512 443.70017587 -90 440 C-90.886875 439.649375 -91.77375 439.29875 -92.6875 438.9375 C-93.450625 438.628125 -94.21375 438.31875 -95 438 C-95.495 436.515 -95.495 436.515 -96 435 C-96.763125 434.9175 -97.52625 434.835 -98.3125 434.75 C-101.62990285 433.82421316 -102.00775058 432.70945922 -104 430 C-104.94875 429.54625 -105.8975 429.0925 -106.875 428.625 C-110.64825153 426.6629092 -112.39844565 424.33532609 -115 421 C-116.1446875 419.88625 -116.1446875 419.88625 -117.3125 418.75 C-135 400.65116279 -135 400.65116279 -135 393 C-135.66 393 -136.32 393 -137 393 C-137.4021875 391.9171875 -137.4021875 391.9171875 -137.8125 390.8125 C-138.89359725 388.02776769 -138.89359725 388.02776769 -140.41015625 385.80859375 C-142.32290186 382.4295665 -143.4742179 378.93676487 -144.625 375.25 C-145.72278718 370.77955557 -145.72278718 370.77955557 -148 367 C-148.04080783 365.00041636 -148.04254356 362.99954746 -148 361 C-148.66 361 -149.32 361 -150 361 C-150.70577888 357.67382931 -151.35659443 354.33875321 -152 351 C-152.19078125 350.0925 -152.3815625 349.185 -152.578125 348.25 C-160.36144172 306.44247018 -143.93210937 270.9375982 -125 235 C-124.15569443 233.38831175 -123.31187597 231.77636815 -122.46875 230.1640625 C-111.22354179 208.6907286 -99.78869393 187.31545539 -88.3203125 165.96069336 C-83.92766078 157.76729505 -79.6174201 149.53379229 -75.33764648 141.28100586 C-72.05701688 134.97396113 -68.68008616 128.72681974 -65.25 122.5 C-59.97360463 112.91500134 -54.95382476 103.20881429 -49.96109009 93.47442627 C-45.72277323 85.21551986 -41.42309559 77.00332714 -36.9375 68.875 C-32.27556516 60.42554256 -27.79474313 51.8902401 -23.375 43.3125 C-23.05515137 42.69198761 -22.73530273 42.07147522 -22.40576172 41.43215942 C-21.14750057 38.99076017 -19.8896322 36.5491591 -18.6322937 34.10728455 C-5.74738227 9.08834025 -5.74738227 9.08834025 0 0 Z " fill="#580E8C" transform="translate(419,516)"/>
<path d="M0 0 C1.32 0 2.64 0 4 0 C4.36125977 0.7027002 4.72251953 1.40540039 5.09472656 2.12939453 C11.23920987 14.06708147 17.38754475 25.99401275 23.875 37.75 C28.74698334 46.58521149 33.39588096 55.52352468 38 64.5 C43.10265079 74.44808061 48.29833545 84.32808953 53.69433594 94.12133789 C57.82926447 101.6397105 61.8142218 109.23116799 65.75805664 116.85131836 C67.96510915 121.11347927 70.18259185 125.36479312 72.49609375 129.5703125 C72.87024414 130.25359619 73.24439453 130.93687988 73.62988281 131.64086914 C74.60441417 133.41153773 75.58886136 135.1767393 76.57421875 136.94140625 C78.01007796 140.0216193 78.62075508 142.63736168 79 146 C78.01 146 77.02 146 76 146 C75.73372803 145.48727539 75.46745605 144.97455078 75.19311523 144.44628906 C70.58902101 135.59675826 65.96031151 126.80545154 60.8515625 118.234375 C57.96176114 113.18636756 55.30007342 108.01910001 52.63867188 102.84765625 C50.73681861 99.179138 48.79184496 95.59503567 46.5703125 92.109375 C39.85866802 81.56046588 34.36533231 70.17987635 28.53710938 59.1237793 C24.07955804 50.67149895 19.52023863 42.29886085 14.73974609 34.02441406 C12.63084427 30.35825131 10.58900922 26.66056981 8.58984375 22.93359375 C7.35697821 20.65869935 6.09725414 18.4078484 4.81640625 16.16015625 C4.06485241 14.81524482 3.31354872 13.47019357 2.5625 12.125 C2.19576172 11.49408447 1.82902344 10.86316895 1.45117188 10.21313477 C-0.17532761 7.26490782 -1.04266703 5.45311182 -0.72265625 2.0546875 C-0.48417969 1.37664063 -0.24570312 0.69859375 0 0 Z " fill="#F5AB05" transform="translate(846,540)"/>
<path d="M0 0 C1 2 1 2 -0.15234375 5.5703125 C-0.73689344 7.09261616 -1.33277263 8.6105986 -1.9375 10.125 C-2.41304321 11.3308374 -2.41304321 11.3308374 -2.89819336 12.56103516 C-5.88958069 19.99532996 -9.38355823 27.121048 -13.07861328 34.22607422 C-16.4707532 40.75688731 -19.71218436 47.3553186 -22.81054688 54.02978516 C-27.22249775 63.53096006 -32.01823941 72.78604927 -37 82 C-37.99 82 -38.98 82 -40 82 C-43.31714103 85.41557252 -45.37944951 89.57049534 -47 94 C-48.81153123 97.8607747 -50.770558 101.60236336 -52.90234375 105.296875 C-54.98401953 108.91906804 -56.84834783 112.62528605 -58.6875 116.375 C-62.59854362 124.27007861 -66.69717782 132.05584511 -70.84570312 139.828125 C-72.02537234 142.04773949 -73.1938289 144.27294002 -74.359375 146.5 C-77.99227515 153.4305139 -81.62795818 160.29955769 -85.80859375 166.921875 C-87.12291665 169.21439888 -88.02273796 171.54582315 -89 174 C-90.03681077 176.01343728 -91.10182108 178.0124871 -92.1875 180 C-92.80882812 181.14210938 -93.43015625 182.28421875 -94.0703125 183.4609375 C-94.39032227 184.04713867 -94.71033203 184.63333984 -95.04003906 185.23730469 C-96.5592479 188.02689976 -98.05973653 190.82652046 -99.5625 193.625 C-101.66424117 197.53423857 -103.789442 201.42857892 -105.9375 205.3125 C-109.13863773 211.16551858 -112.10693191 217.12978206 -115.0703125 223.10546875 C-115.38548828 223.74081543 -115.70066406 224.37616211 -116.02539062 225.03076172 C-116.7035484 226.40100737 -117.37914027 227.77252469 -118.05273438 229.14501953 C-118.39884766 229.8461084 -118.74496094 230.54719727 -119.1015625 231.26953125 C-119.41174316 231.90093018 -119.72192383 232.5323291 -120.04150391 233.18286133 C-121.49513361 235.93868554 -123.21426909 238.44895585 -125 241 C-125.8847576 238.56138687 -126.12735796 237.36018424 -125.25 234.87890625 C-124.8375 234.11449219 -124.425 233.35007812 -124 232.5625 C-123.53255371 231.68174805 -123.06510742 230.80099609 -122.58349609 229.89355469 C-122.06094238 228.93868164 -121.53838867 227.98380859 -121 227 C-120.4632666 225.99614258 -119.9265332 224.99228516 -119.37353516 223.95800781 C-118.20778222 221.78100333 -117.03648195 219.60696248 -115.86035156 217.43554688 C-113.96588465 213.93699852 -112.0859355 210.43087647 -110.2109375 206.921875 C-107.97289886 202.73540021 -105.73181306 198.55059944 -103.48558044 194.36851501 C-100.19352195 188.23838501 -96.92373782 182.09727367 -93.6875 175.9375 C-93.2941748 175.18895752 -92.90084961 174.44041504 -92.49560547 173.66918945 C-90.49894189 169.86520826 -88.50813667 166.05819877 -86.51953125 162.25 C-82.38090497 154.33862833 -78.18029522 146.4750483 -73.8125 138.6875 C-70.95737906 133.59639497 -68.19892073 128.49132527 -65.625 123.25 C-62.72280799 117.34414073 -59.61084211 111.57680674 -56.4375 105.8125 C-51.83055046 97.43861451 -47.37571712 88.99690614 -43 80.5 C-38.9134641 72.56545703 -34.76408918 64.68112136 -30.4375 56.875 C-23.32519398 44.03302325 -16.74999402 30.90776104 -10.12084961 17.81201172 C-9.23551813 16.06998504 -8.35018301 14.32796022 -7.46484375 12.5859375 C-7.05907104 11.77958862 -6.65329834 10.97323975 -6.23522949 10.14245605 C-4.39528211 6.52757367 -2.61431592 3.13341524 0 0 Z " fill="#8219C1" transform="translate(419,516)"/>
<path d="M0 0 C2.18679575 1.6604166 4.23111662 3.39940433 6.26953125 5.23828125 C7.07519531 5.92664063 7.88085938 6.615 8.7109375 7.32421875 C21.45381945 18.41344427 30.15794778 31.12788719 39.26953125 45.23828125 C38.27953125 46.22828125 38.27953125 46.22828125 37.26953125 47.23828125 C36.62886719 46.25988281 35.98820313 45.28148437 35.328125 44.2734375 C30.93294847 37.60063655 26.54750924 31.04228688 21.44921875 24.875 C20.26953125 23.23828125 20.26953125 23.23828125 20.26953125 21.23828125 C19.60953125 21.23828125 18.94953125 21.23828125 18.26953125 21.23828125 C16.76171875 19.77734375 16.76171875 19.77734375 15.14453125 17.86328125 C14.60570312 17.23679687 14.066875 16.6103125 13.51171875 15.96484375 C12.26953125 14.23828125 12.26953125 14.23828125 12.26953125 12.23828125 C11.72425781 11.9959375 11.17898438 11.75359375 10.6171875 11.50390625 C7.7221959 9.94321194 5.2966217 8.01581679 2.70703125 5.98828125 C-4.44357137 0.5088034 -11.98390328 -4.32081676 -20.73046875 -6.76171875 C-21.61734375 -7.11234375 -22.50421875 -7.46296875 -23.41796875 -7.82421875 C-27.36702465 -8.94187608 -31.15766339 -9.23880386 -35.2421875 -9.515625 C-37.73046875 -9.76171875 -37.73046875 -9.76171875 -40.73046875 -10.76171875 C-53.70571401 -10.82281656 -67.22708135 -8.77055164 -77.73046875 -0.76171875 C-79.46296875 -0.05015625 -79.46296875 -0.05015625 -81.23046875 0.67578125 C-84.64748594 2.20123535 -86.22593663 3.56102278 -88.73046875 6.23828125 C-89.31183594 6.50253906 -89.89320313 6.76679688 -90.4921875 7.0390625 C-94.12975754 8.98798746 -96.87203164 11.94620843 -99.83984375 14.78125 C-103.52868759 18.23828125 -103.52868759 18.23828125 -105.73046875 18.23828125 C-105.82199219 18.82351563 -105.91351563 19.40875 -106.0078125 20.01171875 C-106.90170732 22.76588116 -108.17206102 23.91804466 -110.29296875 25.86328125 C-111.4738187 26.95146893 -112.62857211 28.07021327 -113.73046875 29.23828125 C-113.73046875 29.89828125 -113.73046875 30.55828125 -113.73046875 31.23828125 C-115.71307301 32.92560402 -117.71370295 34.59194182 -119.73046875 36.23828125 C-120.06046875 36.89828125 -120.39046875 37.55828125 -120.73046875 38.23828125 C-121.72046875 37.90828125 -122.71046875 37.57828125 -123.73046875 37.23828125 C-93.00490979 -1.47902663 -47.78551564 -30.83157018 0 0 Z " fill="#280D38" transform="translate(587.73046875,410.76171875)"/>
<path d="M0 0 C0.99 0 1.98 0 3 0 C3.5873291 1.1449292 3.5873291 1.1449292 4.18652344 2.31298828 C11.35577345 16.27272759 18.55052759 30.20701165 26.14160156 43.94384766 C34.38824371 58.88243712 34.38824371 58.88243712 35 65 C34.01 65 33.02 65 32 65 C31.60059204 64.23091309 31.60059204 64.23091309 31.19311523 63.44628906 C26.58902101 54.59675826 21.96031151 45.80545154 16.8515625 37.234375 C13.96176114 32.18636756 11.30007342 27.01910001 8.63867188 21.84765625 C6.29781962 17.33234511 3.8186504 12.98590115 1.05053711 8.71777344 C-0.25962391 6.57547901 -1.18477618 4.37156021 -2 2 C-1.34 2 -0.68 2 0 2 C0 1.34 0 0.68 0 0 Z " fill="#EF9F05" transform="translate(890,621)"/>
<path d="M0 0 C0.66 0 1.32 0 2 0 C-3.04547986 17.974522 -14.39026366 32.59039232 -27 46 C-27.78890625 46.88558594 -27.78890625 46.88558594 -28.59375 47.7890625 C-47.97757747 68.65634616 -76.25763096 79.63128376 -104 83 C-105.64485066 83.06056151 -107.29172957 83.08781955 -108.9375 83.0625 C-109.70964844 83.05347656 -110.48179687 83.04445313 -111.27734375 83.03515625 C-111.84582031 83.02355469 -112.41429687 83.01195312 -113 83 C-113 82.34 -113 81.68 -113 81 C-112.39639648 80.92483154 -111.79279297 80.84966309 -111.17089844 80.7722168 C-92.80839014 79.3832465 -92.80839014 79.3832465 -76 73 C-74.63421809 72.61180058 -73.25716708 72.26257414 -71.875 71.9375 C-64.30719135 69.79609044 -57.57469045 65.70006299 -50.74243164 61.89208984 C-49 61 -49 61 -46 60 C-45.67 59.01 -45.34 58.02 -45 57 C-43.31255113 56.00738302 -41.62048132 55.02115316 -39.8984375 54.08984375 C-34.71895368 51.11643637 -30.95828234 46.97159789 -27.296875 42.35546875 C-26.86890625 41.90816406 -26.4409375 41.46085938 -26 41 C-25.34 41 -24.68 41 -24 41 C-23.71125 40.401875 -23.4225 39.80375 -23.125 39.1875 C-22 37 -22 37 -20 34 C-19.34 34 -18.68 34 -18 34 C-18 33.01 -18 32.02 -18 31 C-17.01 30.505 -17.01 30.505 -16 30 C-15.505 28.515 -15.505 28.515 -15 27 C-14.34 27 -13.68 27 -13 27 C-12.75121094 26.32710937 -12.50242187 25.65421875 -12.24609375 24.9609375 C-10.46031917 20.7176236 -8.21868808 16.73574039 -6.00976562 12.703125 C-3.75893439 8.54904851 -1.80069282 4.36907913 0 0 Z " fill="#C15802" transform="translate(979,894)"/>
<path d="M0 0 C5.37475782 0.49613149 9.50362567 1.88292183 14.25 4.5 C14.90186279 4.85457275 15.55372559 5.20914551 16.2253418 5.57446289 C22.40851491 9.04581115 27.71440717 13.28275049 33 18 C33.82886719 18.69738281 34.65773438 19.39476562 35.51171875 20.11328125 C51.9066456 34.19181341 64.51413764 53.18969457 73 73 C73 73.66 73 74.32 73 75 C72.34 75 71.68 75 71 75 C67.535 68.07 67.535 68.07 64 61 C63.34 61 62.68 61 62 61 C62 59.35 62 57.7 62 56 C61.01 55.505 61.01 55.505 60 55 C59.03296315 53.53196815 58.12521057 52.02456034 57.25 50.5 C51.63286869 40.32569049 51.63286869 40.32569049 43 33 C42.03598017 31.26476431 41.07444365 29.52757156 40.16015625 27.765625 C38.50540981 25.24729036 36.41551815 23.90145668 33.87890625 22.3359375 C32 21 32 21 29.71875 18.6640625 C26.66751809 15.67420594 23.48716384 13.35304013 19.9375 11 C19.28644287 10.56574707 18.63538574 10.13149414 17.96459961 9.68408203 C12.24930738 5.97231067 6.43542737 3.27696685 0 1 C0 0.67 0 0.34 0 0 Z " fill="#E5B506" transform="translate(659,244)"/>
<path d="M0 0 C0 0.66 0 1.32 0 2 C-0.76183594 2.23074219 -1.52367187 2.46148438 -2.30859375 2.69921875 C-8.12467119 4.53625694 -13.39495624 6.53350507 -18.640625 9.64453125 C-22.3889644 11.79796465 -26.30368638 13.61062273 -30.203125 15.47265625 C-33.10077963 17.05503469 -35.45425918 18.90795556 -38 21 C-39.18888486 21.7206098 -40.39531306 22.41396648 -41.625 23.0625 C-44.3749598 24.64118063 -45.88680458 25.79075024 -48 28 C-49.65650186 29.01674942 -51.32494713 30.01411174 -53 31 C-60.59357305 35.67205818 -67.83137794 40.70407977 -75 46 C-77.89447358 48.08133539 -80.78959302 50.16172872 -83.6875 52.23828125 C-85.98217394 53.89723788 -85.98217394 53.89723788 -87.6875 55.73046875 C-89 57 -89 57 -91 57 C-91.66 58.32 -92.32 59.64 -93 61 C-93.99 60.67 -94.98 60.34 -96 60 C-94.85072339 56.55217018 -94.14107401 56.12444106 -91.23046875 54.13671875 C-90.43479492 53.58709473 -89.63912109 53.0374707 -88.81933594 52.47119141 C-87.95083008 51.88257324 -87.08232422 51.29395508 -86.1875 50.6875 C-84.34224288 49.41826679 -82.49719636 48.14872735 -80.65234375 46.87890625 C-79.7072998 46.23195801 -78.76225586 45.58500977 -77.78857422 44.91845703 C-74.39293771 42.582359 -71.02669259 40.20646605 -67.66162109 37.82666016 C-63.45774432 34.8603693 -59.23091179 31.92755399 -55 29 C-54.0507666 28.34177246 -53.1015332 27.68354492 -52.12353516 27.00537109 C-12.99749169 0 -12.99749169 0 0 0 Z " fill="#EC9106" transform="translate(705,764)"/>
<path d="M0 0 C4.35951434 -0.37367266 6.36322291 0.69375111 10 3 C11.010625 3.33 12.02125 3.66 13.0625 4 C16 5 16 5 17.9375 6.5 C20.74824635 8.54417916 23.65735325 9.16433831 27 10 C27 10.66 27 11.32 27 12 C27.81339844 12.11214844 28.62679687 12.22429688 29.46484375 12.33984375 C34.37416175 13.25661142 39.05267972 14.77095807 43.81054688 16.27148438 C47.65079027 17.44441713 50.93250831 18.31412312 55 18 C55 18.66 55 19.32 55 20 C57.625 20.21875 57.625 20.21875 60.25 20.4375 C65.359375 20.86328125 65.359375 20.86328125 70.46875 21.2890625 C71.5515625 21.37929688 72.634375 21.46953125 73.75 21.5625 C76.375 21.78125 76.375 21.78125 79 22 C78.67 22.66 78.34 23.32 78 24 C50.85831854 26.11676892 23.06167173 14.25419449 0 1 C0 0.67 0 0.34 0 0 Z " fill="#AD4F03" transform="translate(779,953)"/>
<path d="M0 0 C0.66 0 1.32 0 2 0 C2.40347656 0.83015625 2.80695312 1.6603125 3.22265625 2.515625 C7.68119118 11.59632246 12.39240915 20.53044413 17.1875 29.4375 C22.28432942 38.90926339 27.34089439 48.39925736 32.3125 57.9375 C32.85737061 58.97898193 33.40224121 60.02046387 33.96362305 61.09350586 C34.46676025 62.06167236 34.96989746 63.02983887 35.48828125 64.02734375 C35.92696533 64.87031006 36.36564941 65.71327637 36.81762695 66.58178711 C38.00714014 69.01460316 39.0271535 71.47364188 40 74 C35.79099771 72.59699924 34.81049218 69.64750232 32.8125 65.9375 C32.41740234 65.21941162 32.02230469 64.50132324 31.61523438 63.76147461 C28.62138685 58.27255456 25.79045368 52.7072067 23.03393555 47.09594727 C20.15308366 41.24015433 17.09692642 35.4853408 13.96875 29.75805664 C12.31318744 26.68476975 10.97576679 23.9223476 9.9296875 20.5703125 C9.46949219 19.29800781 9.46949219 19.29800781 9 18 C8.01 17.67 7.02 17.34 6 17 C5.26480478 15.02416285 4.60927518 13.01822402 4 11 C3.484375 9.989375 2.96875 8.97875 2.4375 7.9375 C1.10599457 5.2165976 0.43786111 2.97745558 0 0 Z " fill="#DDA604" transform="translate(732,320)"/>
<path d="M0 0 C0.66 1.32 1.32 2.64 2 4 C1.32710938 4.85271484 1.32710938 4.85271484 0.640625 5.72265625 C-0.9353272 7.910228 -2.08751209 10.01019249 -3.25 12.4375 C-6.77980615 19.64551256 -10.61470504 26.68907629 -14.5 33.7109375 C-18.20768618 40.42104348 -21.66500909 47.23864026 -25.0703125 54.10546875 C-25.38548828 54.74081543 -25.70066406 55.37616211 -26.02539062 56.03076172 C-26.7035484 57.40100737 -27.37914027 58.77252469 -28.05273438 60.14501953 C-28.39884766 60.8461084 -28.74496094 61.54719727 -29.1015625 62.26953125 C-29.41174316 62.90093018 -29.72192383 63.5323291 -30.04150391 64.18286133 C-31.49513361 66.93868554 -33.21426909 69.44895585 -35 72 C-35.8847576 69.56138687 -36.12735796 68.36018424 -35.25 65.87890625 C-34.8375 65.11449219 -34.425 64.35007812 -34 63.5625 C-33.53247314 62.68158691 -33.06494629 61.80067383 -32.58325195 60.89306641 C-32.06077881 59.93835449 -31.53830566 58.98364258 -31 58 C-30.4639917 56.99759277 -29.9279834 55.99518555 -29.37573242 54.96240234 C-28.21068795 52.78687541 -27.04011733 50.61430104 -25.86474609 48.44433594 C-23.95651028 44.919671 -22.06369521 41.38713272 -20.17578125 37.8515625 C-17.62806353 33.0828741 -15.07442313 28.31744067 -12.515625 23.5546875 C-8.30959418 15.72112525 -4.14617427 7.86537124 0 0 Z " fill="#7516B2" transform="translate(329,685)"/>
<path d="M0 0 C3.53828155 1.81925808 6.46529921 4.20076584 9.5078125 6.73046875 C10.8254341 7.80639055 12.14450519 8.88053912 13.46484375 9.953125 C14.15658691 10.51531738 14.84833008 11.07750977 15.56103516 11.65673828 C19.38898152 14.72573196 23.29151444 17.69645171 27.1953125 20.66796875 C28.32308105 21.52708862 28.32308105 21.52708862 29.47363281 22.40356445 C31.23395938 23.74311301 32.99526962 25.08133848 34.7578125 26.41796875 C32.03021311 29.25955736 29.11648048 31.34559915 25.7578125 33.41796875 C25.0978125 33.41796875 24.4378125 33.41796875 23.7578125 33.41796875 C25.09113345 29.41800589 27.2535952 28.58014538 30.7578125 26.41796875 C29.7678125 26.41796875 28.7778125 26.41796875 27.7578125 26.41796875 C27.7578125 25.42796875 27.7578125 24.43796875 27.7578125 23.41796875 C27.2421875 23.19109375 26.7265625 22.96421875 26.1953125 22.73046875 C22.86234245 20.93579257 19.61077579 18.9183186 16.7578125 16.41796875 C16.7578125 15.75796875 16.7578125 15.09796875 16.7578125 14.41796875 C15.0871875 14.04671875 15.0871875 14.04671875 13.3828125 13.66796875 C9.14453353 12.20649324 9.57132792 12.0449996 7.7578125 8.41796875 C5.60164157 6.65948962 5.60164157 6.65948962 3.1328125 5.16796875 C2.31554687 4.6471875 1.49828125 4.12640625 0.65625 3.58984375 C0.02976562 3.203125 -0.59671875 2.81640625 -1.2421875 2.41796875 C-7.95298544 6.28170257 -7.95298544 6.28170257 -14.1796875 10.85546875 C-14.8603125 11.37109375 -15.5409375 11.88671875 -16.2421875 12.41796875 C-17.2321875 12.08796875 -18.2221875 11.75796875 -19.2421875 11.41796875 C-16.52524138 9.42618618 -13.80358348 7.44201303 -11.0703125 5.47265625 C-9.47838457 4.31608983 -7.89614709 3.14485421 -6.3515625 1.92578125 C-2.85650747 -0.74149758 -2.85650747 -0.74149758 0 0 Z " fill="#8E19D1" transform="translate(609.2421875,823.58203125)"/>
<path d="M0 0 C1 3 1 3 0.23071289 5.0144043 C-0.1844458 5.77664307 -0.59960449 6.53888184 -1.02734375 7.32421875 C-1.49076172 8.18982422 -1.95417969 9.05542969 -2.43164062 9.94726562 C-3.17704102 11.30368164 -3.17704102 11.30368164 -3.9375 12.6875 C-8.81525975 21.70149116 -13.45226193 30.81663066 -18 40 C-18.4281601 40.86456818 -18.85632019 41.72913635 -19.29745483 42.61990356 C-20.22512643 44.49321342 -21.1527631 46.36654057 -22.08036804 48.23988342 C-24.01523408 52.14490722 -25.95375743 56.04810875 -27.89306641 59.95092773 C-28.8938379 61.9678038 -29.8924844 63.98573548 -30.88916016 66.00463867 C-32.34502902 68.9525016 -33.80843626 71.896511 -35.2734375 74.83984375 C-35.71924164 75.74693588 -36.16504578 76.65402802 -36.62435913 77.58860779 C-37.24608505 78.83239952 -37.24608505 78.83239952 -37.88037109 80.10131836 C-38.24262787 80.83249374 -38.60488464 81.56366913 -38.9781189 82.31700134 C-40 84 -40 84 -42 85 C-40.72479849 80.92828421 -39.21189957 77.19533368 -37.27734375 73.39453125 C-36.74343018 72.3382251 -36.2095166 71.28191895 -35.65942383 70.19360352 C-35.09118896 69.07783936 -34.5229541 67.9620752 -33.9375 66.8125 C-29.95978942 58.94080283 -26.03472871 51.05830403 -22.3125 43.0625 C-17.85933806 33.53734157 -12.96350438 24.26693645 -8 15 C-7.1961506 13.49113251 -6.39275463 11.98202336 -5.58984375 10.47265625 C-3.7308393 6.97947207 -1.86701074 3.48891114 0 0 Z " fill="#560F8C" transform="translate(541,578)"/>
<path d="M0 0 C0 0.66 0 1.32 0 2 C-1.03447266 1.70996094 -1.03447266 1.70996094 -2.08984375 1.4140625 C-3.02957031 1.15367187 -3.96929688 0.89328125 -4.9375 0.625 C-5.85402344 0.36976563 -6.77054688 0.11453125 -7.71484375 -0.1484375 C-8.79894531 -0.42945313 -9.88304687 -0.71046875 -11 -1 C-11.66523682 -1.17571533 -12.33047363 -1.35143066 -13.01586914 -1.5324707 C-33.21698299 -6.50047155 -51.26207282 -1.9993564 -69.109375 7.546875 C-71.4786305 8.73790614 -73.41460398 9.52308229 -76 10 C-72.04240549 6.57825001 -67.96972596 4.23171896 -63.3125 1.9375 C-62.60424072 1.58679443 -61.89598145 1.23608887 -61.16625977 0.87475586 C-41.70496904 -8.55987921 -19.69529733 -8.63240692 0 0 Z " fill="#EDB308" transform="translate(575,402)"/>
<path d="M0 0 C-1.38605711 2.89811942 -2.95185498 5.55919266 -4.72265625 8.23828125 C-5.25713379 9.05176025 -5.79161133 9.86523926 -6.34228516 10.70336914 C-6.90995605 11.56438232 -7.47762695 12.42539551 -8.0625 13.3125 C-12.61458005 20.25053708 -17.04688155 27.22966856 -21.19555664 34.41723633 C-22.87564873 37.29370169 -24.47751517 39.79870113 -27 42 C-25.71800953 37.87991378 -24.17454151 34.15160686 -22.171875 30.33203125 C-21.61886719 29.27306641 -21.06585938 28.21410156 -20.49609375 27.12304688 C-19.91988281 26.03056641 -19.34367187 24.93808594 -18.75 23.8125 C-18.18925781 22.73935547 -17.62851562 21.66621094 -17.05078125 20.56054688 C-15.9298028 18.42085013 -14.80291172 16.28423984 -13.66992188 14.15087891 C-12.54860198 12.03512532 -11.44067577 9.91222334 -10.34570312 7.78271484 C-9.82427734 6.78578613 -9.30285156 5.78885742 -8.765625 4.76171875 C-8.07388184 3.42113403 -8.07388184 3.42113403 -7.36816406 2.0534668 C-5.17871141 -1.23266566 -3.62855283 -1.20951761 0 0 Z " fill="#E7920A" transform="translate(453,462)"/>
<path d="M0 0 C1 2 1 2 -0.15234375 5.5703125 C-0.73699618 7.09257671 -1.33285424 8.61056602 -1.9375 10.125 C-2.25235352 10.92454102 -2.56720703 11.72408203 -2.89160156 12.54785156 C-6.13162216 20.60815796 -9.99329166 28.3001518 -14 36 C-15.003615 37.99818841 -16.00491701 39.99754904 -17 42 C-19 39 -19 39 -18.8137207 36.20507812 C-17.92756812 32.71470575 -16.65036111 29.90798057 -14.98046875 26.71875 C-14.68062576 26.14217651 -14.38078278 25.56560303 -14.07185364 24.97155762 C-13.43943961 23.75941962 -12.80303319 22.54935702 -12.1628418 21.34130859 C-11.19253739 19.50950989 -10.23493441 17.67151672 -9.27929688 15.83203125 C-6.41835497 10.36605855 -3.48768378 5.09067415 0 0 Z " fill="#7113AA" transform="translate(419,516)"/>
<path d="M0 0 C0.53367187 0.23203125 1.06734375 0.4640625 1.6171875 0.703125 C-16.03709823 11.57154465 -37.21493967 20.09032304 -58.3203125 19.765625 C-59.09246094 19.75660156 -59.86460937 19.74757813 -60.66015625 19.73828125 C-61.22863281 19.72667969 -61.79710937 19.71507812 -62.3828125 19.703125 C-62.3828125 19.043125 -62.3828125 18.383125 -62.3828125 17.703125 C-61.77920898 17.62795654 -61.17560547 17.55278809 -60.55371094 17.4753418 C-42.19120264 16.0863715 -42.19120264 16.0863715 -25.3828125 9.703125 C-23.93513486 9.26993961 -22.47464979 8.87867941 -21.0078125 8.515625 C-15.24441183 6.89678746 -10.39389236 4.07113861 -5.265625 1.03125 C-2.3828125 -0.296875 -2.3828125 -0.296875 0 0 Z " fill="#B65002" transform="translate(928.3828125,957.296875)"/>
<path d="M0 0 C-1.97935648 2.44508741 -3.45784435 3.19146218 -6.4375 4.4375 C-9.91031947 5.96066644 -11.46616394 7.29141663 -14 10 C-14.58136719 10.26425781 -15.16273438 10.52851563 -15.76171875 10.80078125 C-19.39928879 12.74970621 -22.14156289 15.70792718 -25.109375 18.54296875 C-28.79821884 22 -28.79821884 22 -31 22 C-31.09152344 22.58523438 -31.18304688 23.17046875 -31.27734375 23.7734375 C-32.17123857 26.52759991 -33.44159227 27.67976341 -35.5625 29.625 C-36.74334995 30.71318768 -37.89810336 31.83193202 -39 33 C-39 33.66 -39 34.32 -39 35 C-40.98260426 36.68732277 -42.9832342 38.35366057 -45 40 C-45.33 40.66 -45.66 41.32 -46 42 C-46.99 41.67 -47.98 41.34 -49 41 C-38.46384363 27.72337872 -27.73660423 16.00410733 -14 6 C-12.65808594 5.00226563 -12.65808594 5.00226563 -11.2890625 3.984375 C-7.25039425 1.11302947 -5.08061046 -0.32579305 0 0 Z " fill="#2C0B46" transform="translate(513,407)"/>
<path d="M0 0 C2.70198668 2.43635046 4.36418783 5.08566666 6.1796875 8.2265625 C6.77910156 9.25910156 7.37851562 10.29164063 7.99609375 11.35546875 C8.61613281 12.43441406 9.23617187 13.51335938 9.875 14.625 C10.48730469 15.68074219 11.09960938 16.73648438 11.73046875 17.82421875 C14.44647949 22.51762489 17.13343384 27.222659 19.7421875 31.9765625 C21.84816898 35.79187157 24.22380076 39.32178456 26.765625 42.859375 C28.13663562 45.23695037 28.4730287 47.32880064 29 50 C29.66 50.33 30.32 50.66 31 51 C30.01 51 29.02 51 28 51 C27.59273682 50.29093506 27.18547363 49.58187012 26.76586914 48.85131836 C16.4424426 30.86677131 16.4424426 30.86677131 5.83203125 13.05078125 C5.22746094 12.04402344 4.62289062 11.03726563 4 10 C3.6292334 9.39333496 3.2584668 8.78666992 2.87646484 8.16162109 C0 3.33979413 0 3.33979413 0 0 Z " fill="#E99906" transform="translate(703,582)"/>
<path d="M0 0 C0.66 0.33 1.32 0.66 2 1 C1.57702637 1.44802979 1.15405273 1.89605957 0.71826172 2.35766602 C-1.23113084 4.4244053 -3.17807485 6.49343629 -5.125 8.5625 C-5.79015625 9.26697266 -6.4553125 9.97144531 -7.140625 10.69726562 C-11.21839554 15.03489409 -15.16104216 19.44945964 -19 24 C-19 17.66906227 -16.96649349 13.15868572 -12.78515625 8.56640625 C-10.35726661 6.43602606 -7.79823846 5.16218255 -4.83203125 3.921875 C-2.79638906 2.89754332 -1.52306952 1.67867724 0 0 Z " fill="#F0A508" transform="translate(484,423)"/>
<path d="M0 0 C0.66 0 1.32 0 2 0 C1.59479673 7.30102624 -0.27585517 12.57477383 -3.5625 19.0625 C-3.98724609 19.92810547 -4.41199219 20.79371094 -4.84960938 21.68554688 C-5.88769804 23.79671595 -6.93780221 25.90088721 -8 28 C-8.89894866 24.83384996 -8.81736575 23.16729228 -8 20 C-8.33 19.01 -8.66 18.02 -9 17 C-8.28735352 15.09887695 -8.28735352 15.09887695 -7.12890625 12.98828125 C-6.51499023 11.85229492 -6.51499023 11.85229492 -5.88867188 10.69335938 C-5.45103516 9.90767578 -5.01339844 9.12199219 -4.5625 8.3125 C-4.12873047 7.51521484 -3.69496094 6.71792969 -3.24804688 5.89648438 C-2.17425237 3.92589446 -1.09135818 1.96090073 0 0 Z " fill="#7614B3" transform="translate(399,553)"/>
<path d="M0 0 C3.11704586 0.92781633 4.65752116 1.47993954 6.4765625 4.2421875 C7.04503906 5.54542969 7.04503906 5.54542969 7.625 6.875 C9.23031355 10.50835924 9.23031355 10.50835924 11.390625 13.81640625 C13.74421382 17.00974641 15.37895854 20.5096574 17.125 24.0625 C17.48464844 24.78244141 17.84429688 25.50238281 18.21484375 26.24414062 C19.65769378 29.15415839 20.97053027 31.91159082 22 35 C21.01 35.495 21.01 35.495 20 36 C19.65243652 35.35240723 19.30487305 34.70481445 18.94677734 34.03759766 C14.38666812 25.60221979 9.55303244 17.34146146 4.68359375 9.08203125 C4.07902344 8.05207031 3.47445312 7.02210938 2.8515625 5.9609375 C2.02906006 4.56560791 2.02906006 4.56560791 1.18994141 3.14208984 C0 1 0 1 0 0 Z " fill="#EC7E02" transform="translate(820,787)"/>
<path d="M0 0 C3.19442016 1.59721008 4.0745784 4.89312653 5.5625 8 C8.60370429 14.22505418 11.74395372 20.38443134 15 26.5 C15.39775635 27.24765625 15.7955127 27.9953125 16.20532227 28.765625 C17.13534437 30.51123649 18.06742986 32.25574844 19 34 C18.34 34.99 17.68 35.98 17 37 C14.5684972 32.37892742 12.1477614 27.75243697 9.73681641 23.12060547 C8.91520762 21.54582827 8.09068149 19.97256954 7.26318359 18.40087891 C6.07398878 16.14098047 4.89540563 13.87582202 3.71875 11.609375 C3.34689575 10.90818542 2.9750415 10.20699585 2.59191895 9.48455811 C0.78927439 5.98690708 0 4.0156778 0 0 Z " fill="#1B081B" transform="translate(761,369)"/>
<path d="M0 0 C1.01320313 0.00902344 2.02640625 0.01804687 3.0703125 0.02734375 C5.54712801 0.05070993 8.02343379 0.08346832 10.5 0.125 C10.5 0.455 10.5 0.785 10.5 1.125 C8.67166562 1.34577191 6.8432777 1.56610789 5.01464844 1.78442383 C3.4512778 1.97123448 1.888128 2.15990178 0.32519531 2.3503418 C-3.87067702 2.85247505 -8.02802137 3.22420539 -12.25 3.4375 C-17.82603837 3.87299457 -22.5674658 5.92745762 -27.65234375 8.1640625 C-30.55804327 9.14458662 -31.70510825 9.2429567 -34.5 8.125 C-32.16926137 7.15992853 -29.83571249 6.20289978 -27.5 5.25 C-26.85160156 4.98058594 -26.20320312 4.71117187 -25.53515625 4.43359375 C-16.8153407 0.89386665 -9.37177993 -0.15988601 0 0 Z " fill="#2D1432" transform="translate(544.5,397.875)"/>
<path d="M0 0 C1.31823302 0.59155331 2.62947051 1.19871463 3.9375 1.8125 C5.03384766 2.31716797 5.03384766 2.31716797 6.15234375 2.83203125 C8 4 8 4 9 7 C9.763125 7.0825 10.52625 7.165 11.3125 7.25 C16.4149117 8.28777865 21.1455494 10.14287032 26 12 C26 12.66 26 13.32 26 14 C19.21349791 12.69885429 13.25400455 10.64857764 6.9375 7.875 C6.07189453 7.50246094 5.20628906 7.12992188 4.31445312 6.74609375 C2.20649798 5.83769319 0.10190666 4.92228806 -2 4 C-1.34 3.67 -0.68 3.34 0 3 C0 2.01 0 1.02 0 0 Z " fill="#2D074F" transform="translate(340,959)"/>
<path d="M0 0 C1.1602558 3.46313723 1.01798955 3.95704822 -0.51171875 7.609375 C-1.22488718 8.99587004 -1.95066466 10.37593617 -2.6875 11.75 C-3.21633789 12.76707031 -3.21633789 12.76707031 -3.75585938 13.8046875 C-4.47005632 15.1782436 -5.18900333 16.54933992 -5.91259766 17.91796875 C-7.34197487 20.65477362 -8.70269588 23.42359788 -10.05688477 26.19824219 C-11.49880905 28.95294093 -13.21807279 31.4543897 -15 34 C-16.02493012 31.35306689 -16.09218538 30.24471604 -15.07543945 27.5456543 C-14.35167114 26.1985437 -14.35167114 26.1985437 -13.61328125 24.82421875 C-13.08669922 23.83099609 -12.56011719 22.83777344 -12.01757812 21.81445312 C-11.17356445 20.26661133 -11.17356445 20.26661133 -10.3125 18.6875 C-9.76916016 17.66720703 -9.22582031 16.64691406 -8.66601562 15.59570312 C-5.86074274 10.34811285 -2.98414586 5.14783312 0 0 Z " fill="#6813A1" transform="translate(309,723)"/>
<path d="M0 0 C0.33 0.66 0.66 1.32 1 2 C3.40907362 2.43697674 3.40907362 2.43697674 6.3125 2.5625 C7.38628906 2.6346875 8.46007812 2.706875 9.56640625 2.78125 C10.69949219 2.8534375 11.83257813 2.925625 13 3 C15.25039725 3.18267035 17.50043005 3.36990899 19.75 3.5625 C21.25820313 3.68818359 21.25820313 3.68818359 22.796875 3.81640625 C23.88742187 3.90728516 23.88742187 3.90728516 25 4 C24.67 4.66 24.34 5.32 24 6 C12.44461332 6.67861977 2.18047537 4.66996427 -9 2 C-9 1.67 -9 1.34 -9 1 C-4.545 0.505 -4.545 0.505 0 0 Z " fill="#A54C04" transform="translate(833,971)"/>
<path d="M0 0 C5.08988002 1.55932741 8.56619309 4.69640936 12.5625 8.0625 C13.98428726 9.23866126 15.40747755 10.41312844 16.83203125 11.5859375 C17.53408691 12.1644043 18.23614258 12.74287109 18.95947266 13.33886719 C27.47291651 20.45220565 27.47291651 20.45220565 37 26 C36.01 26.66 35.02 27.32 34 28 C32.49373047 26.76636719 32.49373047 26.76636719 30.95703125 25.5078125 C23.32532575 19.27417469 15.65438869 13.12986263 7.76953125 7.21875 C4.97179451 4.97740378 2.48493824 2.58033806 0 0 Z " fill="#E98C10" transform="translate(630,839)"/>
<path d="M0 0 C4 4.75 4 4.75 4 7 C4.66 7 5.32 7 6 7 C6.49628906 7.87140625 6.99257813 8.7428125 7.50390625 9.640625 C8.19007947 10.84376408 8.87627938 12.04688795 9.5625 13.25 C9.92093994 13.8795459 10.27937988 14.5090918 10.64868164 15.15771484 C12.42657416 18.27362509 14.21681787 21.37996072 16.0546875 24.4609375 C16.67601562 25.50507813 17.29734375 26.54921875 17.9375 27.625 C18.50339844 28.56601562 19.06929687 29.50703125 19.65234375 30.4765625 C20.84282919 32.70570335 21.54230781 34.53193833 22 37 C18.5584367 33.86894283 16.23760473 30.39894056 13.92578125 26.40625 C13.55647995 25.77771118 13.18717865 25.14917236 12.8066864 24.50158691 C12.03146306 23.1787504 11.25928044 21.85412771 10.48999023 20.52783203 C9.31355054 18.50180919 8.12531776 16.48306043 6.93554688 14.46484375 C6.18157896 13.17489548 5.42829991 11.88454426 4.67578125 10.59375 C4.32163651 9.99260376 3.96749176 9.39145752 3.60261536 8.77209473 C1.94330861 5.89619785 0.56058125 3.29360472 0 0 Z " fill="#EAA306" transform="translate(644,483)"/>
<path d="M0 0 C0.56960449 0.06566162 1.13920898 0.13132324 1.72607422 0.19897461 C8.85275399 0.97120887 15.96317496 1.30850504 23.125 1.5625 C24.27226562 1.60568359 25.41953125 1.64886719 26.6015625 1.69335938 C29.40095143 1.79833646 32.20041215 1.90049465 35 2 C35 2.33 35 2.66 35 3 C29.70131324 4.08401939 24.57056755 4.18347979 19.1875 4.1875 C17.91036133 4.20586914 17.91036133 4.20586914 16.60742188 4.22460938 C10.77881983 4.23792682 5.64831747 3.44491842 0 2 C0 1.34 0 0.68 0 0 Z " fill="#570E90" transform="translate(473,881)"/>
<path d="M0 0 C0.66 0.66 1.32 1.32 2 2 C-2.95 11.57 -7.9 21.14 -13 31 C-13.66 30.67 -14.32 30.34 -15 30 C-13.52504605 24.90902992 -11.27333529 20.66871251 -8.625 16.125 C-5.56317564 10.82804385 -2.69247993 5.49560972 0 0 Z " fill="#260C22" transform="translate(467,420)"/>
<path d="M0 0 C0.66 0 1.32 0 2 0 C3.41912551 2.49863124 4.8353384 4.99884281 6.25 7.5 C6.64574219 8.19609375 7.04148437 8.8921875 7.44921875 9.609375 C15 22.97797131 15 22.97797131 15 26 C14.34 26 13.68 26 13 26 C10.69 21.38 8.38 16.76 6 12 C5.34 12 4.68 12 4 12 C4 10.35 4 8.7 4 7 C3.34 6.67 2.68 6.34 2 6 C0 3 0 3 0 0 Z " fill="#DDAD05" transform="translate(717,293)"/>
<path d="M0 0 C3.37529245 1.24445565 6.1432666 2.65760149 9.0625 4.75 C14.41833909 8.42309235 20.14883618 11.20807412 26 14 C26 14.33 26 14.66 26 15 C20.72323796 15.46022887 17.9797312 14.20669443 13.5625 11.375 C12.99700439 11.01398193 12.43150879 10.65296387 11.84887695 10.28100586 C7.56431219 7.49619255 3.69458805 4.52274675 0 1 C0 0.67 0 0.34 0 0 Z " fill="#500B81" transform="translate(446,866)"/>
<path d="M0 0 C0.66 0 1.32 0 2 0 C1.11862683 10.22392882 -0.37301201 20.74602402 -5 30 C-5.66 30 -6.32 30 -7 30 C-6.74605469 29.00742187 -6.49210938 28.01484375 -6.23046875 26.9921875 C-3.9545665 18.0305451 -1.86800239 9.05698128 0 0 Z " fill="#D16202" transform="translate(987,863)"/>
<path d="M0 0 C0 0.66 0 1.32 0 2 C-0.76183594 2.23074219 -1.52367187 2.46148438 -2.30859375 2.69921875 C-8.31562983 4.59657222 -13.6482887 6.64591878 -18.96484375 10.046875 C-21.43687672 11.20460253 -23.30219068 11.16890632 -26 11 C-22.89272751 8.50972181 -19.68703173 6.70945217 -16.125 4.9375 C-15.11695313 4.43089844 -14.10890625 3.92429687 -13.0703125 3.40234375 C-8.5449912 1.33543491 -5.00724361 0 0 0 Z " fill="#E08506" transform="translate(705,764)"/>
<path d="M0 0 C-2.95521463 6.40063074 -8.07101016 11.07101016 -13 16 C-13.66 16.99 -14.32 17.98 -15 19 C-15.99 18.67 -16.98 18.34 -18 18 C-3.64556962 0 -3.64556962 0 0 0 Z " fill="#390F54" transform="translate(482,430)"/>
<path d="M0 0 C0 0.33 0 0.66 0 1 C-0.76183594 1.04898438 -1.52367187 1.09796875 -2.30859375 1.1484375 C-8.01694092 1.561776 -13.39950499 2.22170743 -18.953125 3.58984375 C-22.01715587 4.2038194 -24.8850192 4.13255237 -28 4 C-27.67 3.34 -27.34 2.68 -27 2 C-18.24326719 -0.86583983 -9.10306442 -0.17675853 0 0 Z " fill="#C19309" transform="translate(635,237)"/>
<path d="M0 0 C-1.76132454 4.00301032 -4.26132483 7.6028977 -7 11 C-7.33 11 -7.66 11 -8 11 C-8.30192308 3.15 -8.30192308 3.15 -6 0 C-3 -1 -3 -1 0 0 Z " fill="#F3960D" transform="translate(453,462)"/>
<path d="M0 0 C0.66 0.33 1.32 0.66 2 1 C1.43152344 1.556875 0.86304688 2.11375 0.27734375 2.6875 C-4.70853286 7.61511094 -9.46795054 12.65189019 -14 18 C-14.66 17.34 -15.32 16.68 -16 16 C-10.96679794 10.22494276 -5.96260189 4.82082706 0 0 Z " fill="#DFA405" transform="translate(564,261)"/>
<path d="M0 0 C-2.7165179 2.7165179 -5.94518911 4.06678444 -9.375 5.6875 C-10.38433594 6.18733398 -10.38433594 6.18733398 -11.4140625 6.69726562 C-15.08848533 8.43682998 -17.12849207 9.2764793 -21 8 C-18.44342265 6.65411674 -15.88076095 5.32324672 -13.3125 4 C-12.59126953 3.6184375 -11.87003906 3.236875 -11.12695312 2.84375 C-7.29453447 0.8837916 -4.42628851 -0.55874253 0 0 Z " fill="#E3A904" transform="translate(597,244)"/>
<path d="M0 0 C2.16461294 2.03391933 3.75455268 4.01858932 5.26171875 6.57421875 C5.65810547 7.24130859 6.05449219 7.90839844 6.46289062 8.59570312 C6.86701172 9.28599609 7.27113281 9.97628906 7.6875 10.6875 C8.10322266 11.38939453 8.51894531 12.09128906 8.94726562 12.81445312 C9.9688612 14.54059738 10.98497284 16.26998515 12 18 C11.34 18.66 10.68 19.32 10 20 C8.32265277 17.23549979 6.66002366 14.46243144 5 11.6875 C4.52304687 10.90181641 4.04609375 10.11613281 3.5546875 9.30664062 C2.87792969 8.1706543 2.87792969 8.1706543 2.1875 7.01171875 C1.76855469 6.31522217 1.34960938 5.61872559 0.91796875 4.90112305 C0 3 0 3 0 0 Z " fill="#E89C07" transform="translate(681,545)"/>
<path d="M0 0 C0.66 0.99 1.32 1.98 2 3 C0.5679241 5.44083376 -0.87035628 7.87762479 -2.3125 10.3125 C-2.71662109 11.00279297 -3.12074219 11.69308594 -3.53710938 12.40429688 C-3.93349609 13.07138672 -4.32988281 13.73847656 -4.73828125 14.42578125 C-5.09962158 15.03848877 -5.46096191 15.65119629 -5.83325195 16.2824707 C-7.05776207 18.08502953 -8.41500004 19.51069816 -10 21 C-8.51991304 15.99886406 -6.3681664 11.67084403 -3.875 7.125 C-3.50246094 6.43664062 -3.12992187 5.74828125 -2.74609375 5.0390625 C-1.83500474 3.35705202 -0.91809685 1.67819564 0 0 Z " fill="#D98F17" transform="translate(436,483)"/>
<path d="M0 0 C2.16461294 2.03391933 3.75455268 4.01858932 5.26171875 6.57421875 C5.65810547 7.24130859 6.05449219 7.90839844 6.46289062 8.59570312 C6.86701172 9.28599609 7.27113281 9.97628906 7.6875 10.6875 C8.10322266 11.38939453 8.51894531 12.09128906 8.94726562 12.81445312 C9.9688612 14.54059738 10.98497284 16.26998515 12 18 C11.34 18.66 10.68 19.32 10 20 C8.32265277 17.23549979 6.66002366 14.46243144 5 11.6875 C4.52304687 10.90181641 4.04609375 10.11613281 3.5546875 9.30664062 C2.87792969 8.1706543 2.87792969 8.1706543 2.1875 7.01171875 C1.76855469 6.31522217 1.34960938 5.61872559 0.91796875 4.90112305 C0 3 0 3 0 0 Z " fill="#E89C07" transform="translate(669,525)"/>
<path d="M0 0 C0.33 0 0.66 0 1 0 C1.02505615 0.60996826 1.0501123 1.21993652 1.07592773 1.84838867 C1.1924058 4.62827898 1.31489632 7.4078734 1.4375 10.1875 C1.47681641 11.14720703 1.51613281 12.10691406 1.55664062 13.09570312 C1.59853516 14.02705078 1.64042969 14.95839844 1.68359375 15.91796875 C1.72025146 16.77156982 1.75690918 17.6251709 1.79467773 18.50463867 C1.95224757 21.03950815 1.95224757 21.03950815 2.54711914 23.6418457 C3.07179002 26.3738112 2.68733969 28.32701231 2 31 C1.67 31 1.34 31 1 31 C-0.02250405 24.30139078 -0.11756273 17.7684802 -0.0625 11 C-0.05573242 9.40865234 -0.05573242 9.40865234 -0.04882812 7.78515625 C-0.03713843 5.19004402 -0.02075276 2.59505291 0 0 Z " fill="#33095B" transform="translate(265,831)"/>
<path d="M0 0 C0 0.66 0 1.32 0 2 C-1.08667969 2.18175781 -1.08667969 2.18175781 -2.1953125 2.3671875 C-7.28497573 3.24939579 -12.14883346 4.16442347 -17 6 C-16.67 5.01 -16.34 4.02 -16 3 C-10.38102832 0.33838184 -6.17288188 -0.3306901 0 0 Z " fill="#D66B03" transform="translate(723,759)"/>
<path d="M0 0 C0.33 0.99 0.66 1.98 1 3 C-1.75985498 4.8709296 -4.53445778 6.71870642 -7.3125 8.5625 C-8.49102539 9.36204102 -8.49102539 9.36204102 -9.69335938 10.17773438 C-10.8293457 10.92700195 -10.8293457 10.92700195 -11.98828125 11.69140625 C-12.68477783 12.15748291 -13.38127441 12.62355957 -14.09887695 13.10375977 C-16 14 -16 14 -19 13 C-14.54769224 10.00087602 -10.08337443 7.02001867 -5.5625 4.125 C-4.92441406 3.71507812 -4.28632812 3.30515625 -3.62890625 2.8828125 C-2 2 -2 2 0 2 C0 1.34 0 0.68 0 0 Z " fill="#560C8B" transform="translate(542,913)"/>
<path d="M0 0 C0.66 0.33 1.32 0.66 2 1 C0.10225501 2.42330875 -1.79620887 3.84544674 -3.69921875 5.26171875 C-5.21834329 6.40944442 -6.72158191 7.57854266 -8.20703125 8.76953125 C-8.90183594 9.31996094 -9.59664062 9.87039063 -10.3125 10.4375 C-11.26576172 11.20900391 -11.26576172 11.20900391 -12.23828125 11.99609375 C-13.11033203 12.49302734 -13.11033203 12.49302734 -14 13 C-14.99 12.67 -15.98 12.34 -17 12 C-5.47835991 3.55353075 -5.47835991 3.55353075 0 0 Z " fill="#7E1BC2" transform="translate(607,823)"/>
<path d="M0 0 C0.33 0.66 0.66 1.32 1 2 C0.09239638 4.59732225 -0.87067892 7.09450975 -1.9375 9.625 C-2.22818359 10.33140625 -2.51886719 11.0378125 -2.81835938 11.765625 C-3.53867488 13.51327573 -4.26845694 15.25701915 -5 17 C-6.22562472 13.32312584 -5.99016642 11.74848715 -5 8 C-3.4852381 5.22543613 -1.79073217 2.60349991 0 0 Z " fill="#611196" transform="translate(419,516)"/>
<path d="M0 0 C0.66 0.33 1.32 0.66 2 1 C-0.64 5.95 -3.28 10.9 -6 16 C-7.14897419 11.40410325 -6.7140729 10.73828148 -4.5625 6.75 C-4.08941406 5.85796875 -3.61632812 4.9659375 -3.12890625 4.046875 C-2.75636719 3.37140625 -2.38382812 2.6959375 -2 2 C-1.34 2 -0.68 2 0 2 C0 1.34 0 0.68 0 0 Z " fill="#2B0C22" transform="translate(437,478)"/>
<path d="M0 0 C4.35951434 -0.37367266 6.36322291 0.69375111 10 3 C11.98451771 3.71143088 13.98202112 4.38991336 16 5 C15.67 5.66 15.34 6.32 15 7 C9.14727744 6.54979057 4.91779881 3.96160773 0 1 C0 0.67 0 0.34 0 0 Z " fill="#B95A03" transform="translate(779,953)"/>
<path d="M0 0 C0.99 0 1.98 0 3 0 C5.31 4.95 7.62 9.9 10 15 C9.01 15.495 9.01 15.495 8 16 C5.36 10.72 2.72 5.44 0 0 Z " fill="#230B1D" transform="translate(795,437)"/>
<path d="M0 0 C-5.10871021 3.70381491 -10.53394741 7 -17 7 C-17 6.34 -17 5.68 -17 5 C-14.73392948 3.96724659 -12.46318061 2.94866449 -10.1875 1.9375 C-9.22360352 1.49567383 -9.22360352 1.49567383 -8.24023438 1.04492188 C-3.33984375 -1.11328125 -3.33984375 -1.11328125 0 0 Z " fill="#58118B" transform="translate(538,872)"/>
<path d="M0 0 C3 1 3 1 4.8125 3.8125 C6 7 6 7 5.1875 9.375 C4.795625 9.91125 4.40375 10.4475 4 11 C0.85041169 7.57653445 0.43820891 4.55737263 0 0 Z " fill="#EB9808" transform="translate(932,699)"/>
<path d="M0 0 C0.66 0.33 1.32 0.66 2 1 C-0.97 6.61 -3.94 12.22 -7 18 C-8.20600527 13.17597891 -6.96966839 11.35302587 -4.625 7.3125 C-4.13 6.42208008 -4.13 6.42208008 -3.625 5.51367188 C-1.21142451 1.21142451 -1.21142451 1.21142451 0 0 Z " fill="#23022E" transform="translate(385,577)"/>
<path d="M0 0 C3.05001831 3.66002197 7 9.07851471 7 14 C4 13 4 13 2.578125 10.56640625 C2.13984375 9.57511719 1.7015625 8.58382812 1.25 7.5625 C0.80140625 6.57378906 0.3528125 5.58507812 -0.109375 4.56640625 C-0.40328125 3.71949219 -0.6971875 2.87257813 -1 2 C-0.67 1.34 -0.34 0.68 0 0 Z " fill="#DA8D06" transform="translate(942,715)"/>
<path d="M0 0 C0.68359375 1.640625 0.68359375 1.640625 1 4 C-0.21484375 6.796875 -0.21484375 6.796875 -1.9375 9.75 C-2.50339844 10.73484375 -3.06929687 11.7196875 -3.65234375 12.734375 C-4.09707031 13.48203125 -4.54179687 14.2296875 -5 15 C-5.66 15 -6.32 15 -7 15 C-5.45454854 9.52067211 -2.84456788 4.88570819 0 0 Z " fill="#D79404" transform="translate(516,331)"/>
<path d="M0 0 C5.15876713 0.6613804 10.2294812 1.90097173 15 4 C15.33 4.66 15.66 5.32 16 6 C12.11920004 6.22176 9.53385738 5.5809362 6 4 C5.01 3.67 4.02 3.34 3 3 C3 2.34 3 1.68 3 1 C2.01 0.67 1.02 0.34 0 0 Z " fill="#733104" transform="translate(780,758)"/>
<path d="M0 0 C0.66 0 1.32 0 2 0 C3.98 3.96 5.96 7.92 8 12 C7.34 12.66 6.68 13.32 6 14 C4.99515796 12.04414675 3.99626195 10.08523763 3 8.125 C2.1646875 6.48917969 2.1646875 6.48917969 1.3125 4.8203125 C0 2 0 2 0 0 Z " fill="#190A19" transform="translate(753,356)"/>
<path d="M0 0 C0.66 0 1.32 0 2 0 C1.61271765 5.71241466 1.12989477 8.73688282 -3 13 C-3.31563182 7.73946963 -2.66590937 4.55426184 0 0 Z " fill="#6911A0" transform="translate(412,528)"/>
<path d="M0 0 C-2.69452795 3.32853452 -6.13030748 4.37065578 -10 6 C-11.11375 6.86625 -11.11375 6.86625 -12.25 7.75 C-12.8275 8.1625 -13.405 8.575 -14 9 C-14.99 8.67 -15.98 8.34 -17 8 C-15.11417306 6.65255109 -13.21590092 5.32250775 -11.3125 4 C-10.25675781 3.2575 -9.20101563 2.515 -8.11328125 1.75 C-4.9813711 -0.01047145 -3.50448379 -0.41611681 0 0 Z " fill="#2C0E3D" transform="translate(513,407)"/>
<path d="M0 0 C0.99 0.33 1.98 0.66 3 1 C1.02 4.96 -0.96 8.92 -3 13 C-3.33 13 -3.66 13 -4 13 C-3.50269348 8.02693484 -2.44697666 4.36200187 0 0 Z " fill="#240B21" transform="translate(477,400)"/>
<path d="M0 0 C0.66 0 1.32 0 2 0 C0.80100302 3.0831351 -0.47700477 6.06279492 -2 9 C-2.66 9 -3.32 9 -4 9 C-4 9.66 -4 10.32 -4 11 C-4.99 10.67 -5.98 10.34 -7 10 C-5.88321917 8.3278148 -4.75633648 6.66237197 -3.625 5 C-2.99851562 4.071875 -2.37203125 3.14375 -1.7265625 2.1875 C-1.15679688 1.465625 -0.58703125 0.74375 0 0 Z " fill="#E6A102" transform="translate(542,285)"/>
<path d="M0 0 C5.1154241 3.36156441 7.3265957 7.67594378 10 13 C9.01 13 8.02 13 7 13 C6.71125 12.195625 6.4225 11.39125 6.125 10.5625 C5.26737432 7.8673532 5.26737432 7.8673532 3 7 C0 2.5 0 2.5 0 0 Z " fill="#EBBD04" transform="translate(708,280)"/>
<path d="M0 0 C0.33 1.32 0.66 2.64 1 4 C0.01 4.33 -0.98 4.66 -2 5 C-2.0825 5.9075 -2.165 6.815 -2.25 7.75 C-3.09248732 11.40077839 -4.17881618 12.63384583 -7 15 C-3.57142857 3.57142857 -3.57142857 3.57142857 0 0 Z " fill="#7218AF" transform="translate(364,630)"/>
<path d="M0 0 C3.21912302 0.5795818 4.89792533 1.48761055 7.1875 3.8125 C7.69667969 4.31394531 8.20585938 4.81539063 8.73046875 5.33203125 C10.15664221 7.20580377 10.58610657 8.70114612 11 11 C9 11 9 11 7.4921875 9.5390625 C6.95851563 8.90742188 6.42484375 8.27578125 5.875 7.625 C5.06675781 6.68527344 5.06675781 6.68527344 4.2421875 5.7265625 C3 4 3 4 3 2 C2.01 1.67 1.02 1.34 0 1 C0 0.67 0 0.34 0 0 Z " fill="#1E0638" transform="translate(597,421)"/>
<path d="M0 0 C5.85272256 0.45020943 10.08220119 3.03839227 15 6 C15 6.66 15 7.32 15 8 C11.45756548 6.63408831 8.07372071 5.09068516 4.6875 3.375 C3.80449219 2.92898438 2.92148437 2.48296875 2.01171875 2.0234375 C1.34785156 1.68570312 0.68398438 1.34796875 0 1 C0 0.67 0 0.34 0 0 Z " fill="#190638" transform="translate(567,402)"/>
<path d="M0 0 C0.66 0 1.32 0 2 0 C0.58707905 4.8274799 -1.42974154 8.7162359 -4 13 C-4.66 13 -5.32 13 -6 13 C-4.58707905 8.1725201 -2.57025846 4.2837641 0 0 Z " fill="#DC9204" transform="translate(503,356)"/>
<path d="M0 0 C0.99 0.33 1.98 0.66 3 1 C1.04532248 2.33898399 -0.9133579 3.67129047 -2.875 5 C-3.96554687 5.7425 -5.05609375 6.485 -6.1796875 7.25 C-9 9 -9 9 -11 9 C-10 6 -10 6 -7.625 4.3125 C-5 3 -5 3 -2 3 C-2 2.34 -2 1.68 -2 1 C-1.34 0.67 -0.68 0.34 0 0 Z " fill="#8015C3" transform="translate(630,857)"/>
<path d="M0 0 C0.66 0.66 1.32 1.32 2 2 C1.24163557 3.65161581 0.46787924 5.29617138 -0.3125 6.9375 C-0.74175781 7.85402344 -1.17101562 8.77054687 -1.61328125 9.71484375 C-3 12 -3 12 -6 13 C-5.34215037 9.70319035 -4.10579427 7.15882078 -2.4375 4.25 C-1.98246094 3.45078125 -1.52742188 2.6515625 -1.05859375 1.828125 C-0.53458984 0.92320312 -0.53458984 0.92320312 0 0 Z " fill="#18081F" transform="translate(510,338)"/>
<path d="M0 0 C3 1 3 1 4.16796875 2.77734375 C4.50441406 3.49019531 4.84085938 4.20304688 5.1875 4.9375 C5.70376953 6.00291016 5.70376953 6.00291016 6.23046875 7.08984375 C7 9 7 9 7 11 C4 10 4 10 2.83203125 8.22265625 C2.49558594 7.50980469 2.15914062 6.79695312 1.8125 6.0625 C1.46832031 5.35222656 1.12414062 4.64195312 0.76953125 3.91015625 C0 2 0 2 0 0 Z " fill="#D37C04" transform="translate(960,752)"/>
<path d="M0 0 C0.99 0 1.98 0 3 0 C4.65 3.3 6.3 6.6 8 10 C7.34 10.66 6.68 11.32 6 12 C4.02 8.04 2.04 4.08 0 0 Z " fill="#210B1C" transform="translate(788,424)"/>
<path d="M0 0 C0.886875 0.27585937 1.77375 0.55171875 2.6875 0.8359375 C5 1.625 5 1.625 7 2.625 C7 3.285 7 3.945 7 4.625 C5.22739369 4.17357225 3.4569632 3.71359477 1.6875 3.25 C0.20830078 2.86714844 0.20830078 2.86714844 -1.30078125 2.4765625 C-4 1.625 -4 1.625 -7 -0.375 C-4.21076764 -1.76961618 -2.9290405 -0.92809713 0 0 Z " fill="#DEAB09" transform="translate(568,399.375)"/>
<path d="M0 0 C1 3 1 3 0.22265625 5.04296875 C-0.16019531 5.75066406 -0.54304687 6.45835937 -0.9375 7.1875 C-1.31777344 7.90292969 -1.69804688 8.61835937 -2.08984375 9.35546875 C-2.54037109 10.16951172 -2.54037109 10.16951172 -3 11 C-3.99 11 -4.98 11 -6 11 C-4.02 7.37 -2.04 3.74 0 0 Z " fill="#8C3F01" transform="translate(863,918)"/>
<path d="M0 0 C1 2 1 2 0.22265625 4.6015625 C-0.16019531 5.59929688 -0.54304687 6.59703125 -0.9375 7.625 C-1.50791016 9.12933594 -1.50791016 9.12933594 -2.08984375 10.6640625 C-2.39019531 11.43492187 -2.69054687 12.20578125 -3 13 C-3.66 13 -4.32 13 -5 13 C-4.55170486 11.01853549 -4.09107502 9.03985789 -3.625 7.0625 C-3.24214844 5.40927734 -3.24214844 5.40927734 -2.8515625 3.72265625 C-2.43003906 2.37494141 -2.43003906 2.37494141 -2 1 C-1.34 0.67 -0.68 0.34 0 0 Z " fill="#C25A04" transform="translate(985,880)"/>
<path d="M0 0 C3 1 3 1 4.203125 2.70703125 C4.54859375 3.40183594 4.8940625 4.09664062 5.25 4.8125 C5.60578125 5.49957031 5.9615625 6.18664062 6.328125 6.89453125 C7.11193544 9.35077442 6.84119973 10.60042386 6 13 C4.99491199 11.21118264 3.99607264 9.41885304 3 7.625 C2.1646875 6.12839844 2.1646875 6.12839844 1.3125 4.6015625 C0 2 0 2 0 0 Z " fill="#1F0F1D" transform="translate(896,627)"/>
<path d="M0 0 C2 2 2 2 2 5 C2.66 5 3.32 5 4 5 C4.66 7.97 5.32 10.94 6 14 C2.67006966 10.17058011 0.94675475 5.62477778 -1 1 C-0.67 0.67 -0.34 0.34 0 0 Z " fill="#1A0D19" transform="translate(746,341)"/>
<path d="M0 0 C0.66 0.66 1.32 1.32 2 2 C0.35 5.3 -1.3 8.6 -3 12 C-3.66 11.34 -4.32 10.68 -5 10 C-3.35 6.7 -1.7 3.4 0 0 Z " fill="#1D0A1F" transform="translate(488,380)"/>
<path d="M0 0 C0.66 0.66 1.32 1.32 2 2 C0.54550599 3.0055761 -0.91372443 4.00430435 -2.375 5 C-3.59316406 5.8353125 -3.59316406 5.8353125 -4.8359375 6.6875 C-7 8 -7 8 -9 8 C-8 5 -8 5 -5.625 3.3125 C-3 2 -3 2 0 2 C0 1.34 0 0.68 0 0 Z " fill="#871EBE" transform="translate(642,849)"/>
<path d="M0 0 C-1.49097658 3.7952131 -3.75700849 5.61042731 -7 8 C-7 5 -7 5 -4.625 2.3125 C-2 0 -2 0 0 0 Z " fill="#310958" transform="translate(482,430)"/>
<path d="M0 0 C0.66 0 1.32 0 2 0 C0.84414715 3.91211733 -0.35534962 6.8745041 -3 10 C-4 7 -4 7 -3.22265625 5.17578125 C-2.1484375 3.45052083 -1.07421875 1.72526042 0 0 Z " fill="#15081F" transform="translate(520,319)"/>
<path d="M0 0 C3 1 3 1 4.16796875 3.06640625 C4.50441406 3.89011719 4.84085938 4.71382812 5.1875 5.5625 C5.53167969 6.38878906 5.87585938 7.21507812 6.23046875 8.06640625 C6.48441406 8.70449219 6.73835937 9.34257813 7 10 C6.01 10.495 6.01 10.495 5 11 C4.16151196 9.54462432 3.32936066 8.08559627 2.5 6.625 C1.80390625 5.40683594 1.80390625 5.40683594 1.09375 4.1640625 C0 2 0 2 0 0 Z " fill="#210D21" transform="translate(854,548)"/>
<path d="M0 0 C0.66 0.66 1.32 1.32 2 2 C0.68 4.64 -0.64 7.28 -2 10 C-2.33 10 -2.66 10 -3 10 C-2.25 3.375 -2.25 3.375 0 0 Z " fill="#230E1F" transform="translate(495,367)"/>
<path d="M0 0 C0 3 0 3 -1.3125 4.38671875 C-2.875 5.59114583 -4.4375 6.79557292 -6 8 C-6 5 -6 5 -4.6875 3.61328125 C-3.125 2.40885417 -1.5625 1.20442708 0 0 Z " fill="#F2AC02" transform="translate(555,271)"/>
<path d="M0 0 C-4.95 1.485 -4.95 1.485 -10 3 C-9 0 -9 0 -6.6875 -1.3125 C-4 -2 -4 -2 0 0 Z " fill="#A84A03" transform="translate(905,970)"/>
<path d="M0 0 C-3.53411321 2.12046792 -6.94393835 2.53199289 -11 3 C-8.21756596 -1.17365106 -4.53441502 -0.22300402 0 0 Z " fill="#CE5F00" transform="translate(814,956)"/>
<path d="M0 0 C0 0.66 0 1.32 0 2 C-2.90600261 3.25664978 -4.79604584 4 -8 4 C-8 3.34 -8 2.68 -8 2 C-4.91190305 0.23537317 -3.76687864 0 0 0 Z " fill="#F18902" transform="translate(705,764)"/>
<path d="M0 0 C2.25245881 2.68841859 3.88213958 4.64641875 5 8 C4.01 8 3.02 8 2 8 C-0.1519437 4.77208445 -0.20086443 3.71599191 0 0 Z " fill="#1E1110" transform="translate(677,541)"/>
<path d="M0 0 C0.66 0.66 1.32 1.32 2 2 C0.68 4.64 -0.64 7.28 -2 10 C-2.66 9.01 -3.32 8.02 -4 7 C-2.68 4.69 -1.36 2.38 0 0 Z " fill="#2D0D24" transform="translate(448,456)"/>
<path d="M0 0 C2.97 1.65 5.94 3.3 9 5 C5 6 5 6 2.25 4.75 C1.5075 4.1725 0.765 3.595 0 3 C0 2.01 0 1.02 0 0 Z " fill="#2D1137" transform="translate(582,408)"/>
<path d="M0 0 C2.31 1.65 4.62 3.3 7 5 C6.01 5.495 6.01 5.495 5 6 C4.67 6.66 4.34 7.32 4 8 C2.35 5.69 0.7 3.38 -1 1 C-0.67 0.67 -0.34 0.34 0 0 Z " fill="#160A16" transform="translate(701,268)"/>
<path d="M0 0 C1.03348696 3.10046087 1.17755913 4.05610218 0 7 C-0.99 7.33 -1.98 7.66 -3 8 C-2.45276317 4.62537285 -1.9451 2.91765 0 0 Z " fill="#8016BF" transform="translate(397,558)"/>
<path d="M0 0 C0.33 0.66 0.66 1.32 1 2 C-0.65 3.65 -2.3 5.3 -4 7 C-4.33 5.68 -4.66 4.36 -5 3 C-3.35 2.01 -1.7 1.02 0 0 Z " fill="#F3A610" transform="translate(462,448)"/>
<path d="M0 0 C0 0.99 0 1.98 0 3 C-2.5 5.1875 -2.5 5.1875 -5 7 C-5.66 6.67 -6.32 6.34 -7 6 C-4.69 4.02 -2.38 2.04 0 0 Z " fill="#401A3F" transform="translate(487,423)"/>
<path d="M0 0 C0.99 0 1.98 0 3 0 C3 0.66 3 1.32 3 2 C1.25 3.2890625 1.25 3.2890625 -1 4.625 C-1.7425 5.07101562 -2.485 5.51703125 -3.25 5.9765625 C-3.8275 6.31429688 -4.405 6.65203125 -5 7 C-4.34 5.68 -3.68 4.36 -3 3 C-2.34 3 -1.68 3 -1 3 C-0.67 2.01 -0.34 1.02 0 0 Z " fill="#E6A408" transform="translate(495,413)"/>
<path d="M0 0 C-2.93828597 2.50298434 -5.17902761 3.46930939 -9 4 C-8.67 3.01 -8.34 2.02 -8 1 C-5.07175348 0.02391783 -3.04386724 -0.08226668 0 0 Z " fill="#EB7F01" transform="translate(715,761)"/>
<path d="M0 0 C2.15377564 2.62198774 3.40072174 4.64404172 4 8 C1.525 7.01 1.525 7.01 -1 6 C-0.67 4.02 -0.34 2.04 0 0 Z " fill="#DC9306" transform="translate(924,681)"/>
<path d="M0 0 C1 2 1 2 0.0625 5.125 C-0.288125 6.07375 -0.63875 7.0225 -1 8 C-1.99 8 -2.98 8 -4 8 C-2.87548273 5.0280615 -1.77706209 2.66559313 0 0 Z " fill="#59128B" transform="translate(419,516)"/>
</svg>
